G75*
G70*
%OFA0B0*%
%FSLAX24Y24*%
%IPPOS*%
%LPD*%
%AMOC8*
5,1,8,0,0,1.08239X$1,22.5*
%
%ADD10C,0.0000*%
%ADD11R,0.0634X0.0634*%
%ADD12C,0.0660*%
%ADD13C,0.0634*%
%ADD14C,0.1100*%
%ADD15OC8,0.0915*%
%ADD16R,0.0600X0.1600*%
%ADD17C,0.0650*%
%ADD18C,0.0560*%
%ADD19C,0.0740*%
%ADD20OC8,0.0600*%
%ADD21C,0.0150*%
%ADD22C,0.0160*%
%ADD23C,0.0476*%
%ADD24C,0.0120*%
%ADD25C,0.0440*%
D10*
X001680Y001180D02*
X025680Y001180D01*
X025724Y001182D01*
X025767Y001188D01*
X025809Y001197D01*
X025851Y001210D01*
X025891Y001227D01*
X025930Y001247D01*
X025967Y001270D01*
X026001Y001297D01*
X026034Y001326D01*
X026063Y001359D01*
X026090Y001393D01*
X026113Y001430D01*
X026133Y001469D01*
X026150Y001509D01*
X026163Y001551D01*
X026172Y001593D01*
X026178Y001636D01*
X026180Y001680D01*
X026180Y007680D01*
X026182Y007724D01*
X026188Y007767D01*
X026197Y007809D01*
X026210Y007851D01*
X026227Y007891D01*
X026247Y007930D01*
X026270Y007967D01*
X026297Y008001D01*
X026326Y008034D01*
X026359Y008063D01*
X026393Y008090D01*
X026430Y008113D01*
X026469Y008133D01*
X026509Y008150D01*
X026551Y008163D01*
X026593Y008172D01*
X026636Y008178D01*
X026680Y008180D01*
X028430Y008180D01*
X028474Y008182D01*
X028517Y008188D01*
X028559Y008197D01*
X028601Y008210D01*
X028641Y008227D01*
X028680Y008247D01*
X028717Y008270D01*
X028751Y008297D01*
X028784Y008326D01*
X028813Y008359D01*
X028840Y008393D01*
X028863Y008430D01*
X028883Y008469D01*
X028900Y008509D01*
X028913Y008551D01*
X028922Y008593D01*
X028928Y008636D01*
X028930Y008680D01*
X028930Y016930D01*
X028928Y016974D01*
X028922Y017017D01*
X028913Y017059D01*
X028900Y017101D01*
X028883Y017141D01*
X028863Y017180D01*
X028840Y017217D01*
X028813Y017251D01*
X028784Y017284D01*
X028751Y017313D01*
X028717Y017340D01*
X028680Y017363D01*
X028641Y017383D01*
X028601Y017400D01*
X028559Y017413D01*
X028517Y017422D01*
X028474Y017428D01*
X028430Y017430D01*
X017430Y017430D01*
X017386Y017432D01*
X017343Y017438D01*
X017301Y017447D01*
X017259Y017460D01*
X017219Y017477D01*
X017180Y017497D01*
X017143Y017520D01*
X017109Y017547D01*
X017076Y017576D01*
X017047Y017609D01*
X017020Y017643D01*
X016997Y017680D01*
X016977Y017719D01*
X016960Y017759D01*
X016947Y017801D01*
X016938Y017843D01*
X016932Y017886D01*
X016930Y017930D01*
X016930Y020680D01*
X016928Y020724D01*
X016922Y020767D01*
X016913Y020809D01*
X016900Y020851D01*
X016883Y020891D01*
X016863Y020930D01*
X016840Y020967D01*
X016813Y021001D01*
X016784Y021034D01*
X016751Y021063D01*
X016717Y021090D01*
X016680Y021113D01*
X016641Y021133D01*
X016601Y021150D01*
X016559Y021163D01*
X016517Y021172D01*
X016474Y021178D01*
X016430Y021180D01*
X015430Y021180D01*
X015386Y021182D01*
X015343Y021188D01*
X015301Y021197D01*
X015259Y021210D01*
X015219Y021227D01*
X015180Y021247D01*
X015143Y021270D01*
X015109Y021297D01*
X015076Y021326D01*
X015047Y021359D01*
X015020Y021393D01*
X014997Y021430D01*
X014977Y021469D01*
X014960Y021509D01*
X014947Y021551D01*
X014938Y021593D01*
X014932Y021636D01*
X014930Y021680D01*
X014930Y022680D01*
X014928Y022724D01*
X014922Y022767D01*
X014913Y022809D01*
X014900Y022851D01*
X014883Y022891D01*
X014863Y022930D01*
X014840Y022967D01*
X014813Y023001D01*
X014784Y023034D01*
X014751Y023063D01*
X014717Y023090D01*
X014680Y023113D01*
X014641Y023133D01*
X014601Y023150D01*
X014559Y023163D01*
X014517Y023172D01*
X014474Y023178D01*
X014430Y023180D01*
X001680Y023180D01*
X001636Y023178D01*
X001593Y023172D01*
X001551Y023163D01*
X001509Y023150D01*
X001469Y023133D01*
X001430Y023113D01*
X001393Y023090D01*
X001359Y023063D01*
X001326Y023034D01*
X001297Y023001D01*
X001270Y022967D01*
X001247Y022930D01*
X001227Y022891D01*
X001210Y022851D01*
X001197Y022809D01*
X001188Y022767D01*
X001182Y022724D01*
X001180Y022680D01*
X001180Y001680D01*
X001182Y001636D01*
X001188Y001593D01*
X001197Y001551D01*
X001210Y001509D01*
X001227Y001469D01*
X001247Y001430D01*
X001270Y001393D01*
X001297Y001359D01*
X001326Y001326D01*
X001359Y001297D01*
X001393Y001270D01*
X001430Y001247D01*
X001469Y001227D01*
X001509Y001210D01*
X001551Y001197D01*
X001593Y001188D01*
X001636Y001182D01*
X001680Y001180D01*
D11*
X002180Y021180D03*
D12*
X002180Y022180D03*
X004180Y022180D03*
D13*
X003180Y022180D03*
X003180Y021180D03*
X004180Y021180D03*
X005180Y021180D03*
X006180Y021180D03*
X007180Y021180D03*
X008180Y021180D03*
X009180Y021180D03*
X010180Y021180D03*
X011180Y021180D03*
X012180Y021180D03*
X013180Y021180D03*
X014180Y021180D03*
X014180Y022180D03*
X013180Y022180D03*
X012180Y022180D03*
X011180Y022180D03*
X010180Y022180D03*
X009180Y022180D03*
X008180Y022180D03*
X007180Y022180D03*
X006180Y022180D03*
X005180Y022180D03*
D14*
X014430Y004680D03*
X015430Y003680D03*
X016430Y004680D03*
D15*
X016430Y002680D03*
X014430Y002680D03*
D16*
X014430Y002180D03*
X016430Y002180D03*
D17*
X013180Y004680D03*
X013180Y005680D03*
X004180Y008180D03*
X004180Y009180D03*
X008680Y014930D03*
X009680Y014930D03*
X014680Y016180D03*
X014680Y017180D03*
D18*
X013180Y016460D02*
X013180Y015900D01*
X012180Y015900D02*
X012180Y016460D01*
X011180Y016460D02*
X011180Y015900D01*
X010180Y015900D02*
X010180Y016460D01*
X009180Y016460D02*
X009180Y015900D01*
X008180Y015900D02*
X008180Y016460D01*
X007180Y016460D02*
X007180Y015900D01*
X006180Y015900D02*
X006180Y016460D01*
X005180Y016460D02*
X005180Y015900D01*
X004180Y015900D02*
X004180Y016460D01*
X004180Y018900D02*
X004180Y019460D01*
X005180Y019460D02*
X005180Y018900D01*
X006180Y018900D02*
X006180Y019460D01*
X007180Y019460D02*
X007180Y018900D01*
X008180Y018900D02*
X008180Y019460D01*
X009180Y019460D02*
X009180Y018900D01*
X010180Y018900D02*
X010180Y019460D01*
X011180Y019460D02*
X011180Y018900D01*
X012180Y018900D02*
X012180Y019460D01*
X013180Y019460D02*
X013180Y018900D01*
X013180Y013960D02*
X013180Y013400D01*
X012180Y013400D02*
X012180Y013960D01*
X011180Y013960D02*
X011180Y013400D01*
X010180Y013400D02*
X010180Y013960D01*
X009180Y013960D02*
X009180Y013400D01*
X008180Y013400D02*
X008180Y013960D01*
X007180Y013960D02*
X007180Y013400D01*
X006180Y013400D02*
X006180Y013960D01*
X005180Y013960D02*
X005180Y013400D01*
X004180Y013400D02*
X004180Y013960D01*
X004180Y010960D02*
X004180Y010400D01*
X005180Y010400D02*
X005180Y010960D01*
X006180Y010960D02*
X006180Y010400D01*
X007180Y010400D02*
X007180Y010960D01*
X008180Y010960D02*
X008180Y010400D01*
X009180Y010400D02*
X009180Y010960D01*
X010180Y010960D02*
X010180Y010400D01*
X011180Y010400D02*
X011180Y010960D01*
X012180Y010960D02*
X012180Y010400D01*
X013180Y010400D02*
X013180Y010960D01*
X014180Y010960D02*
X014180Y010400D01*
X015180Y010400D02*
X015180Y010960D01*
X016180Y010960D02*
X016180Y010400D01*
X017180Y010400D02*
X017180Y010960D01*
X017180Y013400D02*
X017180Y013960D01*
X016180Y013960D02*
X016180Y013400D01*
X015180Y013400D02*
X015180Y013960D01*
X014180Y013960D02*
X014180Y013400D01*
D19*
X016180Y016180D03*
X018680Y016180D03*
X020180Y016180D03*
X021680Y016180D03*
X023180Y016180D03*
X024680Y016180D03*
X026180Y016180D03*
X027680Y016180D03*
X027680Y012180D03*
X026180Y012180D03*
X024680Y012180D03*
X023180Y012180D03*
X021680Y012180D03*
X020180Y012180D03*
X018680Y012180D03*
X020180Y009680D03*
X020680Y008930D03*
X021180Y009680D03*
X023180Y009680D03*
X023680Y008930D03*
X024180Y009680D03*
X024180Y007680D03*
X025180Y005180D03*
X025180Y004180D03*
X020180Y007680D03*
X018180Y009180D03*
X017180Y009180D03*
X016180Y009180D03*
X015180Y009180D03*
X014180Y009180D03*
X013180Y003680D03*
X003180Y003680D03*
X003180Y002680D03*
X003180Y005180D03*
X003180Y009180D03*
X002180Y015180D03*
X002180Y019180D03*
X016180Y020180D03*
D20*
X020180Y004180D03*
X021180Y004180D03*
X021180Y003180D03*
X020180Y003180D03*
X022180Y003180D03*
X022180Y004180D03*
D21*
X020180Y003180D02*
X019680Y002680D01*
X016480Y002680D01*
X016430Y002180D01*
X016430Y002680D02*
X016480Y002680D01*
X016430Y002680D02*
X014480Y002680D01*
X014430Y002680D01*
X014480Y002680D02*
X014480Y002180D01*
X014430Y002180D01*
X014430Y004680D02*
X014180Y004680D01*
X013180Y005680D01*
X006680Y005680D01*
X004180Y008180D01*
X010180Y013680D02*
X008980Y014880D01*
X008680Y014880D01*
X008680Y014930D01*
X008380Y015380D02*
X008480Y015480D01*
X008880Y015480D01*
X009380Y014980D01*
X009680Y014980D01*
X009680Y014930D01*
X009680Y014880D01*
X009980Y014880D01*
X011180Y013680D01*
X008380Y015380D02*
X004980Y015380D01*
X004180Y016180D01*
X004180Y019180D02*
X002180Y019180D01*
X010180Y016180D02*
X011780Y017780D01*
X015280Y017780D01*
X016180Y016880D01*
X019430Y016880D01*
X019430Y015180D01*
X025180Y015180D01*
X026180Y016180D01*
X023580Y010280D02*
X021780Y010280D01*
X021180Y009680D01*
X023580Y010280D02*
X024180Y009680D01*
X018680Y016180D02*
X016180Y016180D01*
X014680Y016180D01*
X013180Y016180D01*
D22*
X013780Y016575D02*
X013780Y016579D01*
X013689Y016800D01*
X013520Y016969D01*
X013299Y017060D01*
X013061Y017060D01*
X012840Y016969D01*
X012680Y016809D01*
X012520Y016969D01*
X012299Y017060D01*
X012061Y017060D01*
X011840Y016969D01*
X011680Y016809D01*
X011524Y016965D01*
X011944Y017385D01*
X014218Y017385D01*
X014212Y017374D01*
X014187Y017298D01*
X014175Y017220D01*
X014175Y017180D01*
X014680Y017180D01*
X015185Y017180D01*
X015185Y017220D01*
X015173Y017298D01*
X015158Y017344D01*
X015763Y016739D01*
X015599Y016575D01*
X015197Y016575D01*
X015045Y016727D01*
X014963Y016761D01*
X015009Y016795D01*
X015065Y016851D01*
X015112Y016915D01*
X015148Y016986D01*
X015173Y017062D01*
X015185Y017140D01*
X015185Y017180D01*
X014680Y017180D01*
X014680Y017180D01*
X014680Y017180D01*
X014175Y017180D01*
X014175Y017140D01*
X014187Y017062D01*
X014212Y016986D01*
X014248Y016915D01*
X014295Y016851D01*
X014351Y016795D01*
X014397Y016761D01*
X014315Y016727D01*
X014163Y016575D01*
X013780Y016575D01*
X013725Y016713D02*
X014301Y016713D01*
X014280Y016872D02*
X013617Y016872D01*
X013372Y017030D02*
X014198Y017030D01*
X014175Y017189D02*
X011747Y017189D01*
X011906Y017347D02*
X014203Y017347D01*
X015080Y016872D02*
X015630Y016872D01*
X015737Y016713D02*
X015059Y016713D01*
X015162Y017030D02*
X015471Y017030D01*
X015313Y017189D02*
X015185Y017189D01*
X012988Y017030D02*
X012372Y017030D01*
X012617Y016872D02*
X012743Y016872D01*
X011988Y017030D02*
X011589Y017030D01*
X011617Y016872D02*
X011743Y016872D01*
X008680Y014930D02*
X008680Y014425D01*
X008720Y014425D01*
X008798Y014437D01*
X008814Y014443D01*
X008680Y014309D01*
X008546Y014443D01*
X008562Y014437D01*
X008640Y014425D01*
X008680Y014425D01*
X008680Y014930D01*
X008680Y014930D01*
X008680Y014930D01*
X008175Y014930D01*
X008175Y014970D01*
X008177Y014985D01*
X004901Y014985D01*
X004756Y015045D01*
X004645Y015156D01*
X004442Y015359D01*
X004333Y015314D01*
X005002Y014645D01*
X005041Y014552D01*
X005061Y014560D01*
X005299Y014560D01*
X005520Y014469D01*
X005680Y014309D01*
X005840Y014469D01*
X006061Y014560D01*
X006299Y014560D01*
X006520Y014469D01*
X006680Y014309D01*
X006840Y014469D01*
X007061Y014560D01*
X007299Y014560D01*
X007520Y014469D01*
X007680Y014309D01*
X007840Y014469D01*
X008061Y014560D01*
X008299Y014560D01*
X008371Y014530D01*
X008351Y014545D01*
X008295Y014601D01*
X008248Y014665D01*
X008212Y014736D01*
X008187Y014812D01*
X008175Y014890D01*
X008175Y014930D01*
X008680Y014930D01*
X008680Y014811D02*
X008680Y014811D01*
X008680Y014653D02*
X008680Y014653D01*
X008680Y014494D02*
X008680Y014494D01*
X008653Y014336D02*
X008707Y014336D01*
X008257Y014653D02*
X004995Y014653D01*
X004836Y014811D02*
X008188Y014811D01*
X008175Y014970D02*
X004678Y014970D01*
X004673Y015128D02*
X004519Y015128D01*
X004515Y015287D02*
X004361Y015287D01*
X005459Y014494D02*
X005901Y014494D01*
X005707Y014336D02*
X005653Y014336D01*
X006459Y014494D02*
X006901Y014494D01*
X006707Y014336D02*
X006653Y014336D01*
X007459Y014494D02*
X007901Y014494D01*
X007707Y014336D02*
X007653Y014336D01*
X007097Y011800D02*
X014756Y011800D01*
X014895Y011858D01*
X015002Y011965D01*
X015903Y012865D01*
X016061Y012800D01*
X016299Y012800D01*
X016520Y012891D01*
X016680Y013051D01*
X016840Y012891D01*
X017061Y012800D01*
X017299Y012800D01*
X017520Y012891D01*
X017689Y013060D01*
X017780Y013281D01*
X017780Y013300D01*
X018523Y013300D01*
X019048Y012774D01*
X018817Y012870D01*
X018543Y012870D01*
X018289Y012765D01*
X018095Y012571D01*
X017990Y012317D01*
X017990Y012043D01*
X018095Y011789D01*
X018289Y011595D01*
X018543Y011490D01*
X018817Y011490D01*
X019048Y011586D01*
X017780Y010317D01*
X017780Y011079D01*
X017689Y011300D01*
X017520Y011469D01*
X017299Y011560D01*
X017061Y011560D01*
X016840Y011469D01*
X016680Y011309D01*
X016520Y011469D01*
X016299Y011560D01*
X016061Y011560D01*
X015840Y011469D01*
X015680Y011309D01*
X015520Y011469D01*
X015299Y011560D01*
X015061Y011560D01*
X014840Y011469D01*
X014680Y011309D01*
X014520Y011469D01*
X014299Y011560D01*
X014061Y011560D01*
X013840Y011469D01*
X013680Y011309D01*
X013520Y011469D01*
X013299Y011560D01*
X013061Y011560D01*
X012840Y011469D01*
X012680Y011309D01*
X012520Y011469D01*
X012299Y011560D01*
X012061Y011560D01*
X011840Y011469D01*
X011671Y011300D01*
X011605Y011139D01*
X011573Y011201D01*
X011531Y011260D01*
X011480Y011311D01*
X011421Y011353D01*
X011357Y011386D01*
X011288Y011409D01*
X011216Y011420D01*
X011180Y011420D01*
X011180Y010680D01*
X011180Y010680D01*
X011180Y009940D01*
X011203Y009940D01*
X010683Y009420D01*
X010677Y009420D01*
X010502Y009595D01*
X010395Y009702D01*
X010256Y009760D01*
X006637Y009760D01*
X006510Y009887D01*
X006520Y009891D01*
X006680Y010051D01*
X006840Y009891D01*
X007061Y009800D01*
X007299Y009800D01*
X007520Y009891D01*
X007680Y010051D01*
X007840Y009891D01*
X008061Y009800D01*
X008299Y009800D01*
X008520Y009891D01*
X008680Y010051D01*
X008840Y009891D01*
X009061Y009800D01*
X009299Y009800D01*
X009520Y009891D01*
X009680Y010051D01*
X009840Y009891D01*
X010061Y009800D01*
X010299Y009800D01*
X010520Y009891D01*
X010689Y010060D01*
X010755Y010221D01*
X010787Y010159D01*
X010829Y010100D01*
X010880Y010049D01*
X010939Y010007D01*
X011003Y009974D01*
X011072Y009951D01*
X011144Y009940D01*
X011180Y009940D01*
X011180Y010680D01*
X011180Y010680D01*
X011180Y011420D01*
X011144Y011420D01*
X011072Y011409D01*
X011003Y011386D01*
X010939Y011353D01*
X010880Y011311D01*
X010829Y011260D01*
X010787Y011201D01*
X010755Y011139D01*
X010689Y011300D01*
X010520Y011469D01*
X010299Y011560D01*
X010061Y011560D01*
X009840Y011469D01*
X009680Y011309D01*
X009520Y011469D01*
X009299Y011560D01*
X009061Y011560D01*
X008840Y011469D01*
X008680Y011309D01*
X008520Y011469D01*
X008299Y011560D01*
X008061Y011560D01*
X007840Y011469D01*
X007680Y011309D01*
X007520Y011469D01*
X007364Y011533D01*
X007097Y011800D01*
X007098Y011800D02*
X018091Y011800D01*
X018025Y011958D02*
X014995Y011958D01*
X015154Y012117D02*
X017990Y012117D01*
X017990Y012275D02*
X015312Y012275D01*
X015471Y012434D02*
X018038Y012434D01*
X018116Y012592D02*
X015629Y012592D01*
X015788Y012751D02*
X018275Y012751D01*
X018755Y013068D02*
X017692Y013068D01*
X017757Y013226D02*
X018597Y013226D01*
X018914Y012909D02*
X017538Y012909D01*
X016822Y012909D02*
X016538Y012909D01*
X016486Y011483D02*
X016874Y011483D01*
X016695Y011324D02*
X016665Y011324D01*
X015874Y011483D02*
X015486Y011483D01*
X015665Y011324D02*
X015695Y011324D01*
X014874Y011483D02*
X014486Y011483D01*
X014665Y011324D02*
X014695Y011324D01*
X013874Y011483D02*
X013486Y011483D01*
X013665Y011324D02*
X013695Y011324D01*
X012874Y011483D02*
X012486Y011483D01*
X012665Y011324D02*
X012695Y011324D01*
X011874Y011483D02*
X010486Y011483D01*
X010665Y011324D02*
X010898Y011324D01*
X010768Y011166D02*
X010744Y011166D01*
X011180Y011166D02*
X011180Y011166D01*
X011180Y011324D02*
X011180Y011324D01*
X011462Y011324D02*
X011695Y011324D01*
X011616Y011166D02*
X011592Y011166D01*
X011180Y011007D02*
X011180Y011007D01*
X011180Y010849D02*
X011180Y010849D01*
X011180Y010690D02*
X011180Y010690D01*
X011180Y010532D02*
X011180Y010532D01*
X011180Y010373D02*
X011180Y010373D01*
X011180Y010215D02*
X011180Y010215D01*
X011180Y010056D02*
X011180Y010056D01*
X011160Y009898D02*
X010526Y009898D01*
X010685Y010056D02*
X010873Y010056D01*
X010758Y010215D02*
X010753Y010215D01*
X011002Y009739D02*
X010306Y009739D01*
X010517Y009581D02*
X010843Y009581D01*
X010685Y009422D02*
X010675Y009422D01*
X010140Y008883D02*
X010140Y008773D01*
X010222Y008574D01*
X010374Y008422D01*
X010573Y008340D01*
X010787Y008340D01*
X010986Y008422D01*
X011138Y008574D01*
X011220Y008773D01*
X011220Y008883D01*
X011737Y009400D01*
X013524Y009400D01*
X013490Y009317D01*
X013490Y009043D01*
X013595Y008789D01*
X013789Y008595D01*
X014043Y008490D01*
X014317Y008490D01*
X014571Y008595D01*
X014680Y008704D01*
X014789Y008595D01*
X015043Y008490D01*
X015317Y008490D01*
X015571Y008595D01*
X015680Y008704D01*
X015789Y008595D01*
X016043Y008490D01*
X016317Y008490D01*
X016571Y008595D01*
X016680Y008704D01*
X016789Y008595D01*
X017043Y008490D01*
X017317Y008490D01*
X017571Y008595D01*
X017765Y008789D01*
X017773Y008809D01*
X017822Y008760D01*
X017892Y008710D01*
X017969Y008670D01*
X018051Y008644D01*
X018137Y008630D01*
X018160Y008630D01*
X018160Y009160D01*
X018200Y009160D01*
X018200Y009200D01*
X018730Y009200D01*
X018730Y009223D01*
X018716Y009309D01*
X018690Y009391D01*
X018650Y009468D01*
X018600Y009538D01*
X018538Y009600D01*
X018468Y009650D01*
X018391Y009690D01*
X018309Y009716D01*
X018261Y009724D01*
X020032Y011494D01*
X020043Y011490D01*
X020317Y011490D01*
X020571Y011595D01*
X020765Y011789D01*
X020870Y012043D01*
X020870Y012317D01*
X020836Y012400D01*
X020923Y012400D01*
X020994Y012328D01*
X020990Y012317D01*
X020990Y012043D01*
X021095Y011789D01*
X021289Y011595D01*
X021543Y011490D01*
X021817Y011490D01*
X022071Y011595D01*
X022265Y011789D01*
X022370Y012043D01*
X022370Y012317D01*
X022265Y012571D01*
X022071Y012765D01*
X021817Y012870D01*
X021543Y012870D01*
X021532Y012866D01*
X021295Y013102D01*
X021156Y013160D01*
X019737Y013160D01*
X018895Y014002D01*
X018756Y014060D01*
X017780Y014060D01*
X017780Y014079D01*
X017689Y014300D01*
X017589Y014400D01*
X026356Y014400D01*
X026495Y014458D01*
X026602Y014565D01*
X027532Y015494D01*
X027543Y015490D01*
X027817Y015490D01*
X028071Y015595D01*
X028265Y015789D01*
X028370Y016043D01*
X028370Y016317D01*
X028265Y016571D01*
X028071Y016765D01*
X027817Y016870D01*
X027543Y016870D01*
X027289Y016765D01*
X027095Y016571D01*
X026990Y016317D01*
X026990Y016043D01*
X026994Y016032D01*
X026774Y015812D01*
X026870Y016043D01*
X026870Y016317D01*
X026765Y016571D01*
X026571Y016765D01*
X026317Y016870D01*
X026043Y016870D01*
X025789Y016765D01*
X025595Y016571D01*
X025490Y016317D01*
X025490Y016049D01*
X025289Y015848D01*
X025370Y016043D01*
X025370Y016317D01*
X025265Y016571D01*
X025071Y016765D01*
X024817Y016870D01*
X024543Y016870D01*
X024289Y016765D01*
X024095Y016571D01*
X023990Y016317D01*
X023990Y016043D01*
X024095Y015789D01*
X024289Y015595D01*
X024338Y015575D01*
X023522Y015575D01*
X023571Y015595D01*
X023765Y015789D01*
X023870Y016043D01*
X023870Y016317D01*
X023765Y016571D01*
X023571Y016765D01*
X023317Y016870D01*
X023043Y016870D01*
X022789Y016765D01*
X022595Y016571D01*
X022490Y016317D01*
X022490Y016043D01*
X022595Y015789D01*
X022789Y015595D01*
X022838Y015575D01*
X022022Y015575D01*
X022071Y015595D01*
X022265Y015789D01*
X022370Y016043D01*
X022370Y016317D01*
X022265Y016571D01*
X022071Y016765D01*
X021817Y016870D01*
X021543Y016870D01*
X021289Y016765D01*
X021095Y016571D01*
X020990Y016317D01*
X020990Y016043D01*
X021095Y015789D01*
X021289Y015595D01*
X021338Y015575D01*
X020522Y015575D01*
X020571Y015595D01*
X020765Y015789D01*
X020870Y016043D01*
X020870Y016317D01*
X020765Y016571D01*
X020571Y016765D01*
X020317Y016870D01*
X020043Y016870D01*
X019825Y016780D01*
X019825Y016959D01*
X019765Y017104D01*
X019759Y017110D01*
X028430Y017110D01*
X028465Y017107D01*
X028530Y017080D01*
X028580Y017030D01*
X028607Y016965D01*
X028610Y016930D01*
X028610Y008680D01*
X028607Y008645D01*
X028580Y008580D01*
X028530Y008530D01*
X028465Y008503D01*
X028430Y008500D01*
X026517Y008500D01*
X026216Y008375D01*
X026216Y008375D01*
X025985Y008144D01*
X025860Y007843D01*
X025860Y005341D01*
X025765Y005571D01*
X025571Y005765D01*
X025317Y005870D01*
X025043Y005870D01*
X024789Y005765D01*
X024595Y005571D01*
X024490Y005317D01*
X024490Y005043D01*
X024595Y004789D01*
X024704Y004680D01*
X024595Y004571D01*
X024490Y004317D01*
X024490Y004043D01*
X024595Y003789D01*
X024789Y003595D01*
X025043Y003490D01*
X025317Y003490D01*
X025571Y003595D01*
X025765Y003789D01*
X025860Y004019D01*
X025860Y001680D01*
X025857Y001645D01*
X025830Y001580D01*
X025780Y001530D01*
X025715Y001503D01*
X025680Y001500D01*
X016910Y001500D01*
X016910Y002110D01*
X016762Y002110D01*
X016902Y002250D01*
X016910Y002250D01*
X016910Y002258D01*
X017067Y002416D01*
X017067Y002607D01*
X020877Y002607D01*
X020923Y002560D02*
X021437Y002560D01*
X021680Y002803D01*
X021923Y002560D01*
X022437Y002560D01*
X022800Y002923D01*
X022800Y003437D01*
X022557Y003680D01*
X022800Y003923D01*
X022800Y004437D01*
X022437Y004800D01*
X022337Y004800D01*
X023737Y006200D01*
X024256Y006200D01*
X024395Y006258D01*
X025752Y007615D01*
X025810Y007754D01*
X025810Y008773D01*
X027895Y010858D01*
X028002Y010965D01*
X028060Y011104D01*
X028060Y011591D01*
X028071Y011595D01*
X028265Y011789D01*
X028370Y012043D01*
X028370Y012317D01*
X028265Y012571D01*
X028071Y012765D01*
X027817Y012870D01*
X027543Y012870D01*
X027289Y012765D01*
X027095Y012571D01*
X026990Y012317D01*
X026990Y012043D01*
X027095Y011789D01*
X027289Y011595D01*
X027300Y011591D01*
X027300Y011337D01*
X026560Y010597D01*
X026560Y011591D01*
X026571Y011595D01*
X026765Y011789D01*
X026870Y012043D01*
X026870Y012317D01*
X026765Y012571D01*
X026571Y012765D01*
X026317Y012870D01*
X026043Y012870D01*
X025789Y012765D01*
X025595Y012571D01*
X025490Y012317D01*
X025490Y012043D01*
X025595Y011789D01*
X025789Y011595D01*
X025800Y011591D01*
X025800Y010737D01*
X024730Y009667D01*
X024730Y009680D01*
X024730Y009723D01*
X024716Y009809D01*
X024690Y009891D01*
X024650Y009968D01*
X024600Y010038D01*
X024538Y010100D01*
X024468Y010150D01*
X024391Y010190D01*
X024309Y010216D01*
X024223Y010230D01*
X024180Y010230D01*
X024180Y009680D01*
X024180Y009680D01*
X024730Y009680D01*
X024180Y009680D01*
X024180Y009680D01*
X024180Y010230D01*
X024137Y010230D01*
X024051Y010216D01*
X023969Y010190D01*
X023892Y010150D01*
X023822Y010100D01*
X023773Y010051D01*
X023765Y010071D01*
X023571Y010265D01*
X023317Y010370D01*
X023043Y010370D01*
X022789Y010265D01*
X022595Y010071D01*
X022490Y009817D01*
X022490Y009543D01*
X022494Y009532D01*
X021951Y008988D01*
X021819Y008988D01*
X021614Y008903D01*
X021457Y008746D01*
X021372Y008541D01*
X021372Y008526D01*
X021295Y008602D01*
X021292Y008604D01*
X021370Y008793D01*
X021370Y009067D01*
X021335Y009152D01*
X021391Y009170D01*
X021468Y009210D01*
X021538Y009260D01*
X021600Y009322D01*
X021650Y009392D01*
X021690Y009469D01*
X021716Y009551D01*
X021730Y009637D01*
X021730Y009680D01*
X021730Y009723D01*
X021716Y009809D01*
X021690Y009891D01*
X021650Y009968D01*
X021600Y010038D01*
X021538Y010100D01*
X021468Y010150D01*
X021391Y010190D01*
X021309Y010216D01*
X021223Y010230D01*
X021180Y010230D01*
X021180Y009680D01*
X021180Y009680D01*
X021730Y009680D01*
X021180Y009680D01*
X021180Y009680D01*
X021180Y010230D01*
X021137Y010230D01*
X021051Y010216D01*
X020969Y010190D01*
X020892Y010150D01*
X020822Y010100D01*
X020773Y010051D01*
X020765Y010071D01*
X020571Y010265D01*
X020317Y010370D01*
X020043Y010370D01*
X019789Y010265D01*
X019595Y010071D01*
X019490Y009817D01*
X019490Y009543D01*
X019595Y009289D01*
X019789Y009095D01*
X019990Y009012D01*
X019990Y008793D01*
X020045Y008660D01*
X019704Y008660D01*
X019565Y008602D01*
X019458Y008495D01*
X018773Y007810D01*
X007587Y007810D01*
X006392Y009005D01*
X006404Y009000D01*
X010023Y009000D01*
X010140Y008883D01*
X010076Y008947D02*
X006451Y008947D01*
X006609Y008788D02*
X010140Y008788D01*
X010199Y008630D02*
X006768Y008630D01*
X006926Y008471D02*
X010325Y008471D01*
X011035Y008471D02*
X019434Y008471D01*
X019275Y008313D02*
X007085Y008313D01*
X007243Y008154D02*
X019117Y008154D01*
X018958Y007996D02*
X007402Y007996D01*
X007560Y007837D02*
X018800Y007837D01*
X019399Y007362D02*
X019565Y007362D01*
X019595Y007289D02*
X019516Y007479D01*
X019145Y007108D01*
X019006Y007050D01*
X007354Y007050D01*
X007215Y007108D01*
X004465Y009858D01*
X004457Y009865D01*
X004334Y009814D01*
X004545Y009727D01*
X004727Y009545D01*
X004825Y009308D01*
X004825Y009052D01*
X004727Y008815D01*
X004545Y008633D01*
X004463Y008599D01*
X004509Y008565D01*
X004565Y008509D01*
X004612Y008445D01*
X004648Y008374D01*
X004673Y008298D01*
X004685Y008220D01*
X004685Y008180D01*
X004180Y008180D01*
X004180Y008180D01*
X004685Y008180D01*
X004685Y008140D01*
X004673Y008062D01*
X004648Y007986D01*
X004612Y007915D01*
X004565Y007851D01*
X004509Y007795D01*
X004445Y007748D01*
X004374Y007712D01*
X004298Y007687D01*
X004220Y007675D01*
X004180Y007675D01*
X004180Y008180D01*
X004180Y008180D01*
X004180Y008180D01*
X003675Y008180D01*
X003675Y008220D01*
X003687Y008298D01*
X003712Y008374D01*
X003748Y008445D01*
X003795Y008509D01*
X003851Y008565D01*
X003897Y008599D01*
X003815Y008633D01*
X003712Y008736D01*
X003571Y008595D01*
X003317Y008490D01*
X003043Y008490D01*
X002789Y008595D01*
X002595Y008789D01*
X002490Y009043D01*
X002490Y009317D01*
X002595Y009571D01*
X002789Y009765D01*
X002807Y009772D01*
X002858Y009895D01*
X002965Y010002D01*
X003580Y010617D01*
X003580Y011079D01*
X003671Y011300D01*
X003840Y011469D01*
X004061Y011560D01*
X004299Y011560D01*
X004300Y011560D01*
X004300Y011573D01*
X001858Y014015D01*
X001800Y014154D01*
X001800Y014591D01*
X001789Y014595D01*
X001595Y014789D01*
X001500Y015019D01*
X001500Y001680D01*
X001503Y001645D01*
X001530Y001580D01*
X001580Y001530D01*
X001645Y001503D01*
X001680Y001500D01*
X013950Y001500D01*
X013950Y002110D01*
X014098Y002110D01*
X013958Y002250D01*
X013950Y002250D01*
X013950Y002258D01*
X013793Y002416D01*
X013793Y002607D01*
X013950Y002607D01*
X013950Y002753D01*
X013792Y002753D01*
X013793Y002944D01*
X014166Y003317D01*
X014357Y003317D01*
X014357Y003160D01*
X014360Y003160D01*
X014360Y002753D01*
X014500Y002753D01*
X014500Y003160D01*
X014503Y003160D01*
X014503Y003317D01*
X014638Y003317D01*
X014560Y003507D01*
X014560Y003853D01*
X014609Y003972D01*
X014573Y003962D01*
X014503Y003953D01*
X014503Y004607D01*
X014503Y004753D01*
X014357Y004753D01*
X014357Y005407D01*
X014287Y005398D01*
X014195Y005373D01*
X014106Y005336D01*
X014024Y005288D01*
X013948Y005230D01*
X013880Y005162D01*
X013822Y005086D01*
X013774Y005004D01*
X013759Y004968D01*
X013727Y005045D01*
X013545Y005227D01*
X013463Y005261D01*
X013509Y005295D01*
X013565Y005351D01*
X013612Y005415D01*
X013648Y005486D01*
X013673Y005562D01*
X013685Y005640D01*
X013685Y005680D01*
X013685Y005720D01*
X013673Y005798D01*
X013648Y005874D01*
X013612Y005945D01*
X013565Y006009D01*
X013509Y006065D01*
X013445Y006112D01*
X013374Y006148D01*
X013298Y006173D01*
X013220Y006185D01*
X013180Y006185D01*
X013180Y005680D01*
X013180Y005680D01*
X013685Y005680D01*
X013180Y005680D01*
X013180Y005680D01*
X013180Y005680D01*
X012675Y005680D01*
X012675Y005720D01*
X012687Y005798D01*
X012712Y005874D01*
X012748Y005945D01*
X012795Y006009D01*
X012851Y006065D01*
X012915Y006112D01*
X012986Y006148D01*
X013062Y006173D01*
X013140Y006185D01*
X013180Y006185D01*
X013180Y005680D01*
X012675Y005680D01*
X012675Y005640D01*
X012687Y005562D01*
X012712Y005486D01*
X012748Y005415D01*
X012795Y005351D01*
X012851Y005295D01*
X012897Y005261D01*
X012815Y005227D01*
X012633Y005045D01*
X012535Y004808D01*
X012535Y004552D01*
X012633Y004315D01*
X012736Y004212D01*
X012595Y004071D01*
X012490Y003817D01*
X012490Y003543D01*
X012595Y003289D01*
X012789Y003095D01*
X013043Y002990D01*
X013317Y002990D01*
X013571Y003095D01*
X013765Y003289D01*
X013870Y003543D01*
X013870Y003817D01*
X013765Y004071D01*
X013624Y004212D01*
X013727Y004315D01*
X013759Y004392D01*
X013774Y004356D01*
X013822Y004274D01*
X013880Y004198D01*
X013948Y004130D01*
X014024Y004072D01*
X014106Y004024D01*
X014195Y003987D01*
X014287Y003962D01*
X014357Y003953D01*
X014357Y004607D01*
X013825Y004607D01*
X013825Y004753D01*
X014357Y004753D01*
X014357Y004607D01*
X014503Y004607D01*
X015157Y004607D01*
X015148Y004537D01*
X015138Y004501D01*
X015257Y004550D01*
X015603Y004550D01*
X015722Y004501D01*
X015712Y004537D01*
X015703Y004607D01*
X016357Y004607D01*
X016357Y004753D01*
X016357Y005407D01*
X016287Y005398D01*
X016195Y005373D01*
X016106Y005336D01*
X016024Y005288D01*
X015948Y005230D01*
X015880Y005162D01*
X015822Y005086D01*
X015774Y005004D01*
X015737Y004915D01*
X015712Y004823D01*
X015703Y004753D01*
X016357Y004753D01*
X016503Y004753D01*
X016503Y005407D01*
X016573Y005398D01*
X016665Y005373D01*
X016754Y005336D01*
X016836Y005288D01*
X016912Y005230D01*
X016980Y005162D01*
X017038Y005086D01*
X017086Y005004D01*
X017123Y004915D01*
X017148Y004823D01*
X017157Y004753D01*
X016503Y004753D01*
X016503Y004607D01*
X017157Y004607D01*
X017148Y004537D01*
X017123Y004445D01*
X017086Y004356D01*
X017038Y004274D01*
X016980Y004198D01*
X016912Y004130D01*
X016836Y004072D01*
X016754Y004024D01*
X016665Y003987D01*
X016573Y003962D01*
X016503Y003953D01*
X016503Y004607D01*
X016357Y004607D01*
X016357Y003953D01*
X016287Y003962D01*
X016251Y003972D01*
X016300Y003853D01*
X016300Y003507D01*
X016222Y003317D01*
X016357Y003317D01*
X016357Y003160D01*
X016360Y003160D01*
X016360Y002753D01*
X016500Y002753D01*
X016500Y003160D01*
X016503Y003160D01*
X016503Y003317D01*
X016694Y003317D01*
X017067Y002944D01*
X017067Y002753D01*
X016910Y002753D01*
X016910Y002607D01*
X017067Y002607D01*
X017067Y002765D02*
X019916Y002765D01*
X019981Y002700D02*
X020170Y002700D01*
X020170Y003170D01*
X020190Y003170D01*
X020190Y003190D01*
X020560Y003190D01*
X020560Y003170D01*
X020190Y003170D01*
X020190Y002700D01*
X020379Y002700D01*
X020581Y002902D01*
X020923Y002560D01*
X020718Y002765D02*
X020444Y002765D01*
X020190Y002765D02*
X020170Y002765D01*
X020170Y002924D02*
X020190Y002924D01*
X020190Y003082D02*
X020170Y003082D01*
X020170Y003170D02*
X019700Y003170D01*
X019700Y002981D01*
X019981Y002700D01*
X019758Y002924D02*
X017067Y002924D01*
X016930Y003082D02*
X019700Y003082D01*
X019700Y003190D02*
X020170Y003190D01*
X020170Y003560D01*
X020190Y003560D01*
X020190Y003190D01*
X020170Y003190D01*
X020170Y003170D01*
X020170Y003241D02*
X020190Y003241D01*
X020190Y003399D02*
X020170Y003399D01*
X020170Y003558D02*
X020190Y003558D01*
X019902Y003581D02*
X019700Y003379D01*
X019700Y003190D01*
X019700Y003241D02*
X016771Y003241D01*
X016503Y003241D02*
X016357Y003241D01*
X016360Y003082D02*
X016500Y003082D01*
X016500Y002924D02*
X016360Y002924D01*
X016360Y002765D02*
X016500Y002765D01*
X016500Y002607D02*
X016360Y002607D01*
X016360Y002250D01*
X016500Y002250D01*
X016500Y002607D01*
X016360Y002607D01*
X016360Y002448D02*
X016500Y002448D01*
X016500Y002290D02*
X016360Y002290D01*
X016783Y002131D02*
X025860Y002131D01*
X025860Y001973D02*
X016910Y001973D01*
X016910Y001814D02*
X025860Y001814D01*
X025858Y001656D02*
X016910Y001656D01*
X016941Y002290D02*
X025860Y002290D01*
X025860Y002448D02*
X017067Y002448D01*
X016255Y003399D02*
X019720Y003399D01*
X019879Y003558D02*
X016300Y003558D01*
X016300Y003716D02*
X019767Y003716D01*
X019902Y003581D02*
X019560Y003923D01*
X019560Y004437D01*
X019923Y004800D01*
X020300Y004800D01*
X020300Y005156D01*
X020358Y005295D01*
X022363Y007300D01*
X021604Y007300D01*
X021465Y007358D01*
X021358Y007465D01*
X020923Y007900D01*
X020836Y007900D01*
X020870Y007817D01*
X020870Y007543D01*
X020765Y007289D01*
X020571Y007095D01*
X020317Y006990D01*
X020043Y006990D01*
X019789Y007095D01*
X019595Y007289D01*
X019681Y007203D02*
X019240Y007203D01*
X019911Y007045D02*
X001500Y007045D01*
X001500Y007203D02*
X007120Y007203D01*
X006961Y007362D02*
X001500Y007362D01*
X001500Y007520D02*
X006803Y007520D01*
X006644Y007679D02*
X004242Y007679D01*
X004180Y007679D02*
X004180Y007679D01*
X004180Y007675D02*
X004180Y008180D01*
X003675Y008180D01*
X003675Y008140D01*
X003687Y008062D01*
X003712Y007986D01*
X003748Y007915D01*
X003795Y007851D01*
X003851Y007795D01*
X003915Y007748D01*
X003986Y007712D01*
X004062Y007687D01*
X004140Y007675D01*
X004180Y007675D01*
X004118Y007679D02*
X001500Y007679D01*
X001500Y007837D02*
X003809Y007837D01*
X003709Y007996D02*
X001500Y007996D01*
X001500Y008154D02*
X003675Y008154D01*
X003692Y008313D02*
X001500Y008313D01*
X001500Y008471D02*
X003767Y008471D01*
X003824Y008630D02*
X003605Y008630D01*
X004180Y008154D02*
X004180Y008154D01*
X004180Y007996D02*
X004180Y007996D01*
X004180Y007837D02*
X004180Y007837D01*
X004551Y007837D02*
X006486Y007837D01*
X006327Y007996D02*
X004651Y007996D01*
X004685Y008154D02*
X006169Y008154D01*
X006010Y008313D02*
X004668Y008313D01*
X004593Y008471D02*
X005852Y008471D01*
X005693Y008630D02*
X004536Y008630D01*
X004700Y008788D02*
X005535Y008788D01*
X005376Y008947D02*
X004781Y008947D01*
X004825Y009105D02*
X005218Y009105D01*
X005059Y009264D02*
X004825Y009264D01*
X004778Y009422D02*
X004901Y009422D01*
X004742Y009581D02*
X004692Y009581D01*
X004584Y009739D02*
X004516Y009739D01*
X003494Y010532D02*
X001500Y010532D01*
X001500Y010690D02*
X003580Y010690D01*
X003580Y010849D02*
X001500Y010849D01*
X001500Y011007D02*
X003580Y011007D01*
X003616Y011166D02*
X001500Y011166D01*
X001500Y011324D02*
X003695Y011324D01*
X003874Y011483D02*
X001500Y011483D01*
X001500Y011641D02*
X004232Y011641D01*
X004073Y011800D02*
X001500Y011800D01*
X001500Y011958D02*
X003915Y011958D01*
X003756Y012117D02*
X001500Y012117D01*
X001500Y012275D02*
X003598Y012275D01*
X003439Y012434D02*
X001500Y012434D01*
X001500Y012592D02*
X003281Y012592D01*
X003122Y012751D02*
X001500Y012751D01*
X001500Y012909D02*
X002964Y012909D01*
X002805Y013068D02*
X001500Y013068D01*
X001500Y013226D02*
X002647Y013226D01*
X002488Y013385D02*
X001500Y013385D01*
X001500Y013543D02*
X002330Y013543D01*
X002171Y013702D02*
X001500Y013702D01*
X001500Y013860D02*
X002013Y013860D01*
X001856Y014019D02*
X001500Y014019D01*
X001500Y014177D02*
X001800Y014177D01*
X001800Y014336D02*
X001500Y014336D01*
X001500Y014494D02*
X001800Y014494D01*
X001732Y014653D02*
X001500Y014653D01*
X001500Y014811D02*
X001586Y014811D01*
X001520Y014970D02*
X001500Y014970D01*
X001500Y015341D02*
X001500Y022680D01*
X001503Y022715D01*
X001530Y022780D01*
X001580Y022830D01*
X001645Y022857D01*
X001680Y022860D01*
X014430Y022860D01*
X014465Y022857D01*
X014530Y022830D01*
X014580Y022780D01*
X014607Y022715D01*
X014610Y022680D01*
X014610Y022651D01*
X014541Y022720D01*
X014307Y022817D01*
X014053Y022817D01*
X013819Y022720D01*
X013680Y022581D01*
X013541Y022720D01*
X013307Y022817D01*
X013053Y022817D01*
X012819Y022720D01*
X012680Y022581D01*
X012541Y022720D01*
X012307Y022817D01*
X012053Y022817D01*
X011819Y022720D01*
X011680Y022581D01*
X011541Y022720D01*
X011307Y022817D01*
X011053Y022817D01*
X010819Y022720D01*
X010680Y022581D01*
X010541Y022720D01*
X010307Y022817D01*
X010053Y022817D01*
X009819Y022720D01*
X009680Y022581D01*
X009541Y022720D01*
X009307Y022817D01*
X009053Y022817D01*
X008819Y022720D01*
X008680Y022581D01*
X008541Y022720D01*
X008307Y022817D01*
X008053Y022817D01*
X007819Y022720D01*
X007680Y022581D01*
X007541Y022720D01*
X007307Y022817D01*
X007053Y022817D01*
X006819Y022720D01*
X006680Y022581D01*
X006541Y022720D01*
X006307Y022817D01*
X006053Y022817D01*
X005819Y022720D01*
X005680Y022581D01*
X005541Y022720D01*
X005307Y022817D01*
X005053Y022817D01*
X004819Y022720D01*
X004640Y022541D01*
X004607Y022460D01*
X004569Y022512D01*
X004512Y022569D01*
X004447Y022616D01*
X004376Y022653D01*
X004299Y022677D01*
X004220Y022690D01*
X004198Y022690D01*
X004198Y022198D01*
X004162Y022198D01*
X004162Y022690D01*
X004140Y022690D01*
X004061Y022677D01*
X003984Y022653D01*
X003913Y022616D01*
X003848Y022569D01*
X003791Y022512D01*
X003753Y022460D01*
X003720Y022541D01*
X003541Y022720D01*
X003307Y022817D01*
X003053Y022817D01*
X002819Y022720D01*
X002689Y022590D01*
X002548Y022731D01*
X002309Y022830D01*
X002051Y022830D01*
X001812Y022731D01*
X001629Y022548D01*
X001530Y022309D01*
X001530Y022051D01*
X001629Y021812D01*
X001677Y021764D01*
X001592Y021678D01*
X001543Y021561D01*
X001543Y020799D01*
X001592Y020682D01*
X001682Y020592D01*
X001799Y020543D01*
X002561Y020543D01*
X002678Y020592D01*
X002768Y020682D01*
X002771Y020688D01*
X002819Y020640D01*
X003053Y020543D01*
X003307Y020543D01*
X003541Y020640D01*
X003680Y020779D01*
X003819Y020640D01*
X004053Y020543D01*
X004307Y020543D01*
X004541Y020640D01*
X004680Y020779D01*
X004819Y020640D01*
X005053Y020543D01*
X005300Y020543D01*
X005300Y020060D01*
X005299Y020060D01*
X005061Y020060D01*
X004840Y019969D01*
X004671Y019800D01*
X004605Y019639D01*
X004573Y019701D01*
X004531Y019760D01*
X004480Y019811D01*
X004421Y019853D01*
X004357Y019886D01*
X004288Y019909D01*
X004216Y019920D01*
X004180Y019920D01*
X004180Y019180D01*
X004180Y019180D01*
X004580Y019180D01*
X004580Y019180D01*
X004180Y019180D01*
X004180Y019180D01*
X004180Y018717D01*
X004180Y019180D01*
X004180Y019180D01*
X004180Y019180D01*
X003720Y019180D01*
X003720Y019496D01*
X003731Y019568D01*
X003754Y019637D01*
X003787Y019701D01*
X003829Y019760D01*
X003880Y019811D01*
X003939Y019853D01*
X004003Y019886D01*
X004072Y019909D01*
X004144Y019920D01*
X004180Y019920D01*
X004180Y019180D01*
X003720Y019180D01*
X003720Y018864D01*
X003731Y018792D01*
X003754Y018723D01*
X003787Y018659D01*
X003829Y018600D01*
X003880Y018549D01*
X003939Y018507D01*
X003959Y018496D01*
X001965Y016502D01*
X001858Y016395D01*
X001800Y016256D01*
X001800Y015769D01*
X001789Y015765D01*
X001595Y015571D01*
X001500Y015341D01*
X001500Y015445D02*
X001543Y015445D01*
X001500Y015604D02*
X001628Y015604D01*
X001500Y015762D02*
X001786Y015762D01*
X001800Y015921D02*
X001500Y015921D01*
X001500Y016079D02*
X001800Y016079D01*
X001800Y016238D02*
X001500Y016238D01*
X001500Y016396D02*
X001859Y016396D01*
X002017Y016555D02*
X001500Y016555D01*
X001500Y016713D02*
X002176Y016713D01*
X002334Y016872D02*
X001500Y016872D01*
X001500Y017030D02*
X002493Y017030D01*
X002651Y017189D02*
X001500Y017189D01*
X001500Y017347D02*
X002810Y017347D01*
X002968Y017506D02*
X001500Y017506D01*
X001500Y017664D02*
X003127Y017664D01*
X003285Y017823D02*
X001500Y017823D01*
X001500Y017981D02*
X003444Y017981D01*
X003602Y018140D02*
X001500Y018140D01*
X001500Y018298D02*
X003761Y018298D01*
X003919Y018457D02*
X001500Y018457D01*
X001500Y018615D02*
X003818Y018615D01*
X003737Y018774D02*
X002551Y018774D01*
X002538Y018760D02*
X002600Y018822D01*
X002650Y018892D01*
X002690Y018969D01*
X002716Y019051D01*
X002730Y019137D01*
X002730Y019171D01*
X002189Y019171D01*
X002189Y019189D01*
X002171Y019189D01*
X002171Y019730D01*
X002137Y019730D01*
X002051Y019716D01*
X001969Y019690D01*
X001892Y019650D01*
X001822Y019600D01*
X001760Y019538D01*
X001710Y019468D01*
X001670Y019391D01*
X001644Y019309D01*
X001630Y019223D01*
X001630Y019189D01*
X002171Y019189D01*
X002171Y019171D01*
X001630Y019171D01*
X001630Y019137D01*
X001644Y019051D01*
X001670Y018969D01*
X001710Y018892D01*
X001760Y018822D01*
X001822Y018760D01*
X001892Y018710D01*
X001969Y018670D01*
X002051Y018644D01*
X002137Y018630D01*
X002171Y018630D01*
X002171Y019171D01*
X002189Y019171D01*
X002189Y018630D01*
X002223Y018630D01*
X002309Y018644D01*
X002391Y018670D01*
X002468Y018710D01*
X002538Y018760D01*
X002671Y018932D02*
X003720Y018932D01*
X003720Y019091D02*
X002723Y019091D01*
X002730Y019189D02*
X002730Y019223D01*
X002716Y019309D01*
X002690Y019391D01*
X002650Y019468D01*
X002600Y019538D01*
X002538Y019600D01*
X002468Y019650D01*
X002391Y019690D01*
X002309Y019716D01*
X002223Y019730D01*
X002189Y019730D01*
X002189Y019189D01*
X002730Y019189D01*
X002726Y019249D02*
X003720Y019249D01*
X003720Y019408D02*
X002681Y019408D01*
X002572Y019566D02*
X003731Y019566D01*
X003804Y019725D02*
X002258Y019725D01*
X002189Y019725D02*
X002171Y019725D01*
X002102Y019725D02*
X001500Y019725D01*
X001500Y019883D02*
X003997Y019883D01*
X004180Y019883D02*
X004180Y019883D01*
X004180Y019725D02*
X004180Y019725D01*
X004180Y019566D02*
X004180Y019566D01*
X004180Y019408D02*
X004180Y019408D01*
X004180Y019249D02*
X004180Y019249D01*
X004180Y019091D02*
X004180Y019091D01*
X004180Y018932D02*
X004180Y018932D01*
X004180Y018774D02*
X004180Y018774D01*
X004180Y018717D02*
X004180Y018717D01*
X004556Y019725D02*
X004640Y019725D01*
X004755Y019883D02*
X004363Y019883D01*
X005016Y020042D02*
X001500Y020042D01*
X001500Y020200D02*
X005300Y020200D01*
X005300Y020359D02*
X001500Y020359D01*
X001500Y020517D02*
X005300Y020517D01*
X004784Y020676D02*
X004576Y020676D01*
X003784Y020676D02*
X003576Y020676D01*
X002784Y020676D02*
X002762Y020676D01*
X001598Y020676D02*
X001500Y020676D01*
X001500Y020834D02*
X001543Y020834D01*
X001543Y020993D02*
X001500Y020993D01*
X001500Y021151D02*
X001543Y021151D01*
X001543Y021310D02*
X001500Y021310D01*
X001500Y021468D02*
X001543Y021468D01*
X001571Y021627D02*
X001500Y021627D01*
X001500Y021785D02*
X001656Y021785D01*
X001574Y021944D02*
X001500Y021944D01*
X001500Y022102D02*
X001530Y022102D01*
X001530Y022261D02*
X001500Y022261D01*
X001500Y022419D02*
X001575Y022419D01*
X001500Y022578D02*
X001658Y022578D01*
X001512Y022736D02*
X001824Y022736D01*
X002536Y022736D02*
X002858Y022736D01*
X003502Y022736D02*
X004858Y022736D01*
X004677Y022578D02*
X004501Y022578D01*
X004198Y022578D02*
X004162Y022578D01*
X004162Y022419D02*
X004198Y022419D01*
X004198Y022261D02*
X004162Y022261D01*
X003859Y022578D02*
X003683Y022578D01*
X005502Y022736D02*
X005858Y022736D01*
X006502Y022736D02*
X006858Y022736D01*
X007502Y022736D02*
X007858Y022736D01*
X008502Y022736D02*
X008858Y022736D01*
X009502Y022736D02*
X009858Y022736D01*
X010502Y022736D02*
X010858Y022736D01*
X011502Y022736D02*
X011858Y022736D01*
X012502Y022736D02*
X012858Y022736D01*
X013502Y022736D02*
X013858Y022736D01*
X014502Y022736D02*
X014598Y022736D01*
X019795Y017030D02*
X028580Y017030D01*
X028610Y016872D02*
X019825Y016872D01*
X020623Y016713D02*
X021237Y016713D01*
X021088Y016555D02*
X020772Y016555D01*
X020837Y016396D02*
X021023Y016396D01*
X020990Y016238D02*
X020870Y016238D01*
X020870Y016079D02*
X020990Y016079D01*
X021041Y015921D02*
X020819Y015921D01*
X020738Y015762D02*
X021122Y015762D01*
X021281Y015604D02*
X020579Y015604D01*
X022079Y015604D02*
X022781Y015604D01*
X022622Y015762D02*
X022238Y015762D01*
X022319Y015921D02*
X022541Y015921D01*
X022490Y016079D02*
X022370Y016079D01*
X022370Y016238D02*
X022490Y016238D01*
X022523Y016396D02*
X022337Y016396D01*
X022272Y016555D02*
X022588Y016555D01*
X022737Y016713D02*
X022123Y016713D01*
X023623Y016713D02*
X024237Y016713D01*
X024088Y016555D02*
X023772Y016555D01*
X023837Y016396D02*
X024023Y016396D01*
X023990Y016238D02*
X023870Y016238D01*
X023870Y016079D02*
X023990Y016079D01*
X024041Y015921D02*
X023819Y015921D01*
X023738Y015762D02*
X024122Y015762D01*
X024281Y015604D02*
X023579Y015604D01*
X025123Y016713D02*
X025737Y016713D01*
X025588Y016555D02*
X025272Y016555D01*
X025337Y016396D02*
X025523Y016396D01*
X025490Y016238D02*
X025370Y016238D01*
X025370Y016079D02*
X025490Y016079D01*
X025362Y015921D02*
X025319Y015921D01*
X026623Y016713D02*
X027237Y016713D01*
X027088Y016555D02*
X026772Y016555D01*
X026837Y016396D02*
X027023Y016396D01*
X026990Y016238D02*
X026870Y016238D01*
X026870Y016079D02*
X026990Y016079D01*
X026883Y015921D02*
X026819Y015921D01*
X027482Y015445D02*
X028610Y015445D01*
X028610Y015287D02*
X027324Y015287D01*
X027165Y015128D02*
X028610Y015128D01*
X028610Y014970D02*
X027007Y014970D01*
X026848Y014811D02*
X028610Y014811D01*
X028610Y014653D02*
X026690Y014653D01*
X026531Y014494D02*
X028610Y014494D01*
X028610Y014336D02*
X017653Y014336D01*
X017740Y014177D02*
X028610Y014177D01*
X028610Y014019D02*
X018856Y014019D01*
X019037Y013860D02*
X028610Y013860D01*
X028610Y013702D02*
X019196Y013702D01*
X019354Y013543D02*
X028610Y013543D01*
X028610Y013385D02*
X019513Y013385D01*
X019671Y013226D02*
X028610Y013226D01*
X028610Y013068D02*
X021330Y013068D01*
X021488Y012909D02*
X028610Y012909D01*
X028610Y012751D02*
X028085Y012751D01*
X028244Y012592D02*
X028610Y012592D01*
X028610Y012434D02*
X028322Y012434D01*
X028370Y012275D02*
X028610Y012275D01*
X028610Y012117D02*
X028370Y012117D01*
X028335Y011958D02*
X028610Y011958D01*
X028610Y011800D02*
X028269Y011800D01*
X028117Y011641D02*
X028610Y011641D01*
X028610Y011483D02*
X028060Y011483D01*
X028060Y011324D02*
X028610Y011324D01*
X028610Y011166D02*
X028060Y011166D01*
X028020Y011007D02*
X028610Y011007D01*
X028610Y010849D02*
X027886Y010849D01*
X027727Y010690D02*
X028610Y010690D01*
X028610Y010532D02*
X027569Y010532D01*
X027410Y010373D02*
X028610Y010373D01*
X028610Y010215D02*
X027252Y010215D01*
X027093Y010056D02*
X028610Y010056D01*
X028610Y009898D02*
X026935Y009898D01*
X026776Y009739D02*
X028610Y009739D01*
X028610Y009581D02*
X026618Y009581D01*
X026459Y009422D02*
X028610Y009422D01*
X028610Y009264D02*
X026301Y009264D01*
X026142Y009105D02*
X028610Y009105D01*
X028610Y008947D02*
X025984Y008947D01*
X025825Y008788D02*
X028610Y008788D01*
X028600Y008630D02*
X025810Y008630D01*
X025810Y008471D02*
X026447Y008471D01*
X026153Y008313D02*
X025810Y008313D01*
X025810Y008154D02*
X025994Y008154D01*
X025985Y008144D02*
X025985Y008144D01*
X025923Y007996D02*
X025810Y007996D01*
X025810Y007837D02*
X025860Y007837D01*
X025860Y007679D02*
X025779Y007679D01*
X025860Y007520D02*
X025657Y007520D01*
X025499Y007362D02*
X025860Y007362D01*
X025860Y007203D02*
X025340Y007203D01*
X025182Y007045D02*
X025860Y007045D01*
X025860Y006886D02*
X025023Y006886D01*
X024865Y006728D02*
X025860Y006728D01*
X025860Y006569D02*
X024706Y006569D01*
X024548Y006411D02*
X025860Y006411D01*
X025860Y006252D02*
X024381Y006252D01*
X024817Y005777D02*
X023314Y005777D01*
X023472Y005935D02*
X025860Y005935D01*
X025860Y005777D02*
X025543Y005777D01*
X025718Y005618D02*
X025860Y005618D01*
X025860Y005460D02*
X025811Y005460D01*
X025860Y006094D02*
X023631Y006094D01*
X023155Y005618D02*
X024642Y005618D01*
X024549Y005460D02*
X022997Y005460D01*
X022838Y005301D02*
X024490Y005301D01*
X024490Y005143D02*
X022680Y005143D01*
X022521Y004984D02*
X024514Y004984D01*
X024580Y004826D02*
X022363Y004826D01*
X022570Y004667D02*
X024691Y004667D01*
X024569Y004509D02*
X022728Y004509D01*
X022800Y004350D02*
X024504Y004350D01*
X024490Y004192D02*
X022800Y004192D01*
X022800Y004033D02*
X024494Y004033D01*
X024560Y003875D02*
X022751Y003875D01*
X022593Y003716D02*
X024668Y003716D01*
X024880Y003558D02*
X022679Y003558D01*
X022800Y003399D02*
X025860Y003399D01*
X025860Y003241D02*
X022800Y003241D01*
X022800Y003082D02*
X025860Y003082D01*
X025860Y002924D02*
X022800Y002924D01*
X022642Y002765D02*
X025860Y002765D01*
X025860Y002607D02*
X022483Y002607D01*
X021877Y002607D02*
X021483Y002607D01*
X021642Y002765D02*
X021718Y002765D01*
X019609Y003875D02*
X016291Y003875D01*
X016357Y004033D02*
X016503Y004033D01*
X016503Y004192D02*
X016357Y004192D01*
X016357Y004350D02*
X016503Y004350D01*
X016503Y004509D02*
X016357Y004509D01*
X016357Y004667D02*
X014503Y004667D01*
X014503Y004753D02*
X015157Y004753D01*
X015148Y004823D01*
X015123Y004915D01*
X015086Y005004D01*
X015038Y005086D01*
X014980Y005162D01*
X014912Y005230D01*
X014836Y005288D01*
X014754Y005336D01*
X014665Y005373D01*
X014573Y005398D01*
X014503Y005407D01*
X014503Y004753D01*
X014503Y004826D02*
X014357Y004826D01*
X014357Y004984D02*
X014503Y004984D01*
X014503Y005143D02*
X014357Y005143D01*
X014357Y005301D02*
X014503Y005301D01*
X014814Y005301D02*
X016046Y005301D01*
X015865Y005143D02*
X014995Y005143D01*
X015094Y004984D02*
X015766Y004984D01*
X015713Y004826D02*
X015147Y004826D01*
X015140Y004509D02*
X015157Y004509D01*
X015703Y004509D02*
X015720Y004509D01*
X016357Y004826D02*
X016503Y004826D01*
X016503Y004984D02*
X016357Y004984D01*
X016357Y005143D02*
X016503Y005143D01*
X016503Y005301D02*
X016357Y005301D01*
X016814Y005301D02*
X020364Y005301D01*
X020300Y005143D02*
X016995Y005143D01*
X017094Y004984D02*
X020300Y004984D01*
X020300Y004826D02*
X017147Y004826D01*
X017140Y004509D02*
X019632Y004509D01*
X019560Y004350D02*
X017082Y004350D01*
X016974Y004192D02*
X019560Y004192D01*
X019560Y004033D02*
X016769Y004033D01*
X016503Y004667D02*
X019790Y004667D01*
X020522Y005460D02*
X013634Y005460D01*
X013681Y005618D02*
X020681Y005618D01*
X020839Y005777D02*
X013676Y005777D01*
X013617Y005935D02*
X020998Y005935D01*
X021156Y006094D02*
X013470Y006094D01*
X013180Y006094D02*
X013180Y006094D01*
X013180Y005935D02*
X013180Y005935D01*
X013180Y005777D02*
X013180Y005777D01*
X012890Y006094D02*
X001500Y006094D01*
X001500Y006252D02*
X021315Y006252D01*
X021473Y006411D02*
X001500Y006411D01*
X001500Y006569D02*
X021632Y006569D01*
X021790Y006728D02*
X001500Y006728D01*
X001500Y006886D02*
X021949Y006886D01*
X022107Y007045D02*
X020449Y007045D01*
X020679Y007203D02*
X022266Y007203D01*
X022865Y006728D02*
X023190Y006728D01*
X023258Y006795D02*
X021263Y004800D01*
X021060Y004800D01*
X021060Y004923D01*
X023655Y007517D01*
X023670Y007469D01*
X023710Y007392D01*
X023760Y007322D01*
X023822Y007260D01*
X023892Y007210D01*
X023969Y007170D01*
X024051Y007144D01*
X024137Y007130D01*
X024171Y007130D01*
X024171Y007671D01*
X024189Y007671D01*
X024189Y007689D01*
X024730Y007689D01*
X024730Y007723D01*
X024716Y007809D01*
X024690Y007891D01*
X024650Y007968D01*
X024600Y008038D01*
X024538Y008100D01*
X024468Y008150D01*
X024391Y008190D01*
X024343Y008205D01*
X025050Y008913D01*
X025050Y007987D01*
X024730Y007667D01*
X024730Y007671D01*
X024189Y007671D01*
X024189Y007130D01*
X024193Y007130D01*
X024023Y006960D01*
X023504Y006960D01*
X023365Y006902D01*
X023258Y006795D01*
X023349Y006886D02*
X023023Y006886D01*
X023182Y007045D02*
X024107Y007045D01*
X024171Y007203D02*
X024189Y007203D01*
X024189Y007362D02*
X024171Y007362D01*
X024171Y007520D02*
X024189Y007520D01*
X024189Y007679D02*
X024741Y007679D01*
X024707Y007837D02*
X024900Y007837D01*
X025050Y007996D02*
X024631Y007996D01*
X024461Y008154D02*
X025050Y008154D01*
X025050Y008313D02*
X024450Y008313D01*
X024608Y008471D02*
X025050Y008471D01*
X025050Y008630D02*
X024767Y008630D01*
X024925Y008788D02*
X025050Y008788D01*
X024802Y009739D02*
X024728Y009739D01*
X024686Y009898D02*
X024960Y009898D01*
X025119Y010056D02*
X024582Y010056D01*
X024315Y010215D02*
X025277Y010215D01*
X025436Y010373D02*
X018910Y010373D01*
X018752Y010215D02*
X019739Y010215D01*
X019589Y010056D02*
X018593Y010056D01*
X018435Y009898D02*
X019523Y009898D01*
X019490Y009739D02*
X018276Y009739D01*
X018557Y009581D02*
X019490Y009581D01*
X019540Y009422D02*
X018674Y009422D01*
X018724Y009264D02*
X019621Y009264D01*
X019779Y009105D02*
X018725Y009105D01*
X018730Y009137D02*
X018730Y009160D01*
X018200Y009160D01*
X018200Y008630D01*
X018223Y008630D01*
X018309Y008644D01*
X018391Y008670D01*
X018468Y008710D01*
X018538Y008760D01*
X018600Y008822D01*
X018650Y008892D01*
X018690Y008969D01*
X018716Y009051D01*
X018730Y009137D01*
X018678Y008947D02*
X019990Y008947D01*
X019992Y008788D02*
X018566Y008788D01*
X018200Y008788D02*
X018160Y008788D01*
X018160Y008947D02*
X018200Y008947D01*
X018200Y009105D02*
X018160Y009105D01*
X017794Y008788D02*
X017764Y008788D01*
X017605Y008630D02*
X019631Y008630D01*
X020862Y007837D02*
X020986Y007837D01*
X020870Y007679D02*
X021144Y007679D01*
X021303Y007520D02*
X020861Y007520D01*
X020795Y007362D02*
X021461Y007362D01*
X022548Y006411D02*
X022873Y006411D01*
X023032Y006569D02*
X022706Y006569D01*
X022715Y006252D02*
X022389Y006252D01*
X022231Y006094D02*
X022556Y006094D01*
X022398Y005935D02*
X022072Y005935D01*
X021914Y005777D02*
X022239Y005777D01*
X022081Y005618D02*
X021755Y005618D01*
X021597Y005460D02*
X021922Y005460D01*
X021764Y005301D02*
X021438Y005301D01*
X021280Y005143D02*
X021605Y005143D01*
X021447Y004984D02*
X021121Y004984D01*
X021060Y004826D02*
X021288Y004826D01*
X023340Y007203D02*
X023905Y007203D01*
X023732Y007362D02*
X023499Y007362D01*
X021719Y008947D02*
X021370Y008947D01*
X021354Y009105D02*
X022068Y009105D01*
X022226Y009264D02*
X021541Y009264D01*
X021666Y009422D02*
X022385Y009422D01*
X022490Y009581D02*
X021721Y009581D01*
X021728Y009739D02*
X022490Y009739D01*
X022523Y009898D02*
X021686Y009898D01*
X021582Y010056D02*
X022589Y010056D01*
X022739Y010215D02*
X021315Y010215D01*
X021180Y010215D02*
X021180Y010215D01*
X021045Y010215D02*
X020621Y010215D01*
X020771Y010056D02*
X020778Y010056D01*
X021180Y010056D02*
X021180Y010056D01*
X021180Y009898D02*
X021180Y009898D01*
X021180Y009739D02*
X021180Y009739D01*
X021368Y008788D02*
X021499Y008788D01*
X021409Y008630D02*
X021302Y008630D01*
X023621Y010215D02*
X024045Y010215D01*
X024180Y010215D02*
X024180Y010215D01*
X024180Y010056D02*
X024180Y010056D01*
X024180Y009898D02*
X024180Y009898D01*
X024180Y009739D02*
X024180Y009739D01*
X023778Y010056D02*
X023771Y010056D01*
X023317Y011490D02*
X023043Y011490D01*
X022789Y011595D01*
X022595Y011789D01*
X022490Y012043D01*
X022490Y012317D01*
X022595Y012571D01*
X022789Y012765D01*
X023043Y012870D01*
X023317Y012870D01*
X023571Y012765D01*
X023765Y012571D01*
X023870Y012317D01*
X023870Y012043D01*
X023765Y011789D01*
X023571Y011595D01*
X023317Y011490D01*
X023617Y011641D02*
X024243Y011641D01*
X024289Y011595D02*
X024095Y011789D01*
X023990Y012043D01*
X023990Y012317D01*
X024095Y012571D01*
X024289Y012765D01*
X024543Y012870D01*
X024817Y012870D01*
X025071Y012765D01*
X025265Y012571D01*
X025370Y012317D01*
X025370Y012043D01*
X025265Y011789D01*
X025071Y011595D01*
X024817Y011490D01*
X024543Y011490D01*
X024289Y011595D01*
X024091Y011800D02*
X023769Y011800D01*
X023835Y011958D02*
X024025Y011958D01*
X023990Y012117D02*
X023870Y012117D01*
X023870Y012275D02*
X023990Y012275D01*
X024038Y012434D02*
X023822Y012434D01*
X023744Y012592D02*
X024116Y012592D01*
X024275Y012751D02*
X023585Y012751D01*
X022775Y012751D02*
X022085Y012751D01*
X022244Y012592D02*
X022616Y012592D01*
X022538Y012434D02*
X022322Y012434D01*
X022370Y012275D02*
X022490Y012275D01*
X022490Y012117D02*
X022370Y012117D01*
X022335Y011958D02*
X022525Y011958D01*
X022591Y011800D02*
X022269Y011800D01*
X022117Y011641D02*
X022743Y011641D01*
X021243Y011641D02*
X020617Y011641D01*
X020769Y011800D02*
X021091Y011800D01*
X021025Y011958D02*
X020835Y011958D01*
X020870Y012117D02*
X020990Y012117D01*
X020990Y012275D02*
X020870Y012275D01*
X020020Y011483D02*
X025800Y011483D01*
X025800Y011324D02*
X019861Y011324D01*
X019703Y011166D02*
X025800Y011166D01*
X025800Y011007D02*
X019544Y011007D01*
X019386Y010849D02*
X025800Y010849D01*
X025753Y010690D02*
X019227Y010690D01*
X019069Y010532D02*
X025594Y010532D01*
X026560Y010690D02*
X026653Y010690D01*
X026560Y010849D02*
X026811Y010849D01*
X026970Y011007D02*
X026560Y011007D01*
X026560Y011166D02*
X027128Y011166D01*
X027287Y011324D02*
X026560Y011324D01*
X026560Y011483D02*
X027300Y011483D01*
X027243Y011641D02*
X026617Y011641D01*
X026769Y011800D02*
X027091Y011800D01*
X027025Y011958D02*
X026835Y011958D01*
X026870Y012117D02*
X026990Y012117D01*
X026990Y012275D02*
X026870Y012275D01*
X026822Y012434D02*
X027038Y012434D01*
X027116Y012592D02*
X026744Y012592D01*
X026585Y012751D02*
X027275Y012751D01*
X025775Y012751D02*
X025085Y012751D01*
X025244Y012592D02*
X025616Y012592D01*
X025538Y012434D02*
X025322Y012434D01*
X025370Y012275D02*
X025490Y012275D01*
X025490Y012117D02*
X025370Y012117D01*
X025335Y011958D02*
X025525Y011958D01*
X025591Y011800D02*
X025269Y011800D01*
X025117Y011641D02*
X025743Y011641D01*
X028079Y015604D02*
X028610Y015604D01*
X028610Y015762D02*
X028238Y015762D01*
X028319Y015921D02*
X028610Y015921D01*
X028610Y016079D02*
X028370Y016079D01*
X028370Y016238D02*
X028610Y016238D01*
X028610Y016396D02*
X028337Y016396D01*
X028272Y016555D02*
X028610Y016555D01*
X028610Y016713D02*
X028123Y016713D01*
X018945Y011483D02*
X017486Y011483D01*
X017665Y011324D02*
X018787Y011324D01*
X018628Y011166D02*
X017744Y011166D01*
X017780Y011007D02*
X018470Y011007D01*
X018311Y010849D02*
X017780Y010849D01*
X017780Y010690D02*
X018153Y010690D01*
X017994Y010532D02*
X017780Y010532D01*
X017780Y010373D02*
X017836Y010373D01*
X018243Y011641D02*
X007256Y011641D01*
X007486Y011483D02*
X007874Y011483D01*
X007695Y011324D02*
X007665Y011324D01*
X008486Y011483D02*
X008874Y011483D01*
X008695Y011324D02*
X008665Y011324D01*
X009486Y011483D02*
X009874Y011483D01*
X009695Y011324D02*
X009665Y011324D01*
X009526Y009898D02*
X009834Y009898D01*
X008834Y009898D02*
X008526Y009898D01*
X007834Y009898D02*
X007526Y009898D01*
X006834Y009898D02*
X006526Y009898D01*
X003336Y010373D02*
X001500Y010373D01*
X001500Y010215D02*
X003177Y010215D01*
X003019Y010056D02*
X001500Y010056D01*
X001500Y009898D02*
X002860Y009898D01*
X002763Y009739D02*
X001500Y009739D01*
X001500Y009581D02*
X002605Y009581D01*
X002533Y009422D02*
X001500Y009422D01*
X001500Y009264D02*
X002490Y009264D01*
X002490Y009105D02*
X001500Y009105D01*
X001500Y008947D02*
X002530Y008947D01*
X002596Y008788D02*
X001500Y008788D01*
X001500Y008630D02*
X002755Y008630D01*
X003043Y005870D02*
X002789Y005765D01*
X002595Y005571D01*
X002490Y005317D01*
X002490Y005043D01*
X002595Y004789D01*
X002789Y004595D01*
X003043Y004490D01*
X003317Y004490D01*
X003571Y004595D01*
X003765Y004789D01*
X003870Y005043D01*
X003870Y005317D01*
X003765Y005571D01*
X003571Y005765D01*
X003317Y005870D01*
X003043Y005870D01*
X002817Y005777D02*
X001500Y005777D01*
X001500Y005935D02*
X012743Y005935D01*
X012684Y005777D02*
X003543Y005777D01*
X003718Y005618D02*
X012679Y005618D01*
X012726Y005460D02*
X003811Y005460D01*
X003870Y005301D02*
X012845Y005301D01*
X012730Y005143D02*
X003870Y005143D01*
X003846Y004984D02*
X012608Y004984D01*
X012542Y004826D02*
X003780Y004826D01*
X003643Y004667D02*
X012535Y004667D01*
X012553Y004509D02*
X003362Y004509D01*
X003317Y004370D02*
X003043Y004370D01*
X002789Y004265D01*
X002595Y004071D01*
X002490Y003817D01*
X002490Y003543D01*
X002595Y003289D01*
X002789Y003095D01*
X002809Y003087D01*
X002760Y003038D01*
X002710Y002968D01*
X002670Y002891D01*
X002644Y002809D01*
X002630Y002723D01*
X002630Y002680D01*
X003180Y002680D01*
X003730Y002680D01*
X003730Y002723D01*
X003716Y002809D01*
X003690Y002891D01*
X003650Y002968D01*
X003600Y003038D01*
X003551Y003087D01*
X003571Y003095D01*
X003765Y003289D01*
X003870Y003543D01*
X003870Y003817D01*
X003765Y004071D01*
X003571Y004265D01*
X003317Y004370D01*
X003366Y004350D02*
X012619Y004350D01*
X012716Y004192D02*
X003644Y004192D01*
X003781Y004033D02*
X012579Y004033D01*
X012514Y003875D02*
X003846Y003875D01*
X003870Y003716D02*
X012490Y003716D01*
X012490Y003558D02*
X003870Y003558D01*
X003810Y003399D02*
X012550Y003399D01*
X012644Y003241D02*
X003716Y003241D01*
X003556Y003082D02*
X012821Y003082D01*
X013539Y003082D02*
X013930Y003082D01*
X013793Y002924D02*
X003673Y002924D01*
X003723Y002765D02*
X013793Y002765D01*
X013793Y002607D02*
X003725Y002607D01*
X003730Y002637D02*
X003730Y002680D01*
X003180Y002680D01*
X003180Y002680D01*
X003180Y002680D01*
X003180Y002130D01*
X003223Y002130D01*
X003309Y002144D01*
X003391Y002170D01*
X003468Y002210D01*
X003538Y002260D01*
X003600Y002322D01*
X003650Y002392D01*
X003690Y002469D01*
X003716Y002551D01*
X003730Y002637D01*
X003679Y002448D02*
X013793Y002448D01*
X013919Y002290D02*
X003567Y002290D01*
X003230Y002131D02*
X014077Y002131D01*
X013950Y001973D02*
X001500Y001973D01*
X001500Y002131D02*
X003130Y002131D01*
X003137Y002130D02*
X003051Y002144D01*
X002969Y002170D01*
X002892Y002210D01*
X002822Y002260D01*
X002760Y002322D01*
X002710Y002392D01*
X002670Y002469D01*
X002644Y002551D01*
X002630Y002637D01*
X002630Y002680D01*
X003180Y002680D01*
X003180Y002680D01*
X003180Y002130D01*
X003137Y002130D01*
X003180Y002131D02*
X003180Y002131D01*
X003180Y002290D02*
X003180Y002290D01*
X003180Y002448D02*
X003180Y002448D01*
X003180Y002607D02*
X003180Y002607D01*
X002793Y002290D02*
X001500Y002290D01*
X001500Y002448D02*
X002681Y002448D01*
X002635Y002607D02*
X001500Y002607D01*
X001500Y002765D02*
X002637Y002765D01*
X002687Y002924D02*
X001500Y002924D01*
X001500Y003082D02*
X002804Y003082D01*
X002644Y003241D02*
X001500Y003241D01*
X001500Y003399D02*
X002550Y003399D01*
X002490Y003558D02*
X001500Y003558D01*
X001500Y003716D02*
X002490Y003716D01*
X002514Y003875D02*
X001500Y003875D01*
X001500Y004033D02*
X002579Y004033D01*
X002716Y004192D02*
X001500Y004192D01*
X001500Y004350D02*
X002994Y004350D01*
X002998Y004509D02*
X001500Y004509D01*
X001500Y004667D02*
X002717Y004667D01*
X002580Y004826D02*
X001500Y004826D01*
X001500Y004984D02*
X002514Y004984D01*
X002490Y005143D02*
X001500Y005143D01*
X001500Y005301D02*
X002490Y005301D01*
X002549Y005460D02*
X001500Y005460D01*
X001500Y005618D02*
X002642Y005618D01*
X001500Y001814D02*
X013950Y001814D01*
X013950Y001656D02*
X001502Y001656D01*
X011161Y008630D02*
X013755Y008630D01*
X013596Y008788D02*
X011220Y008788D01*
X011284Y008947D02*
X013530Y008947D01*
X013490Y009105D02*
X011442Y009105D01*
X011601Y009264D02*
X013490Y009264D01*
X014605Y008630D02*
X014755Y008630D01*
X015605Y008630D02*
X015755Y008630D01*
X016605Y008630D02*
X016755Y008630D01*
X014046Y005301D02*
X013515Y005301D01*
X013630Y005143D02*
X013865Y005143D01*
X013766Y004984D02*
X013752Y004984D01*
X013825Y004667D02*
X014357Y004667D01*
X014357Y004509D02*
X014503Y004509D01*
X014503Y004350D02*
X014357Y004350D01*
X014357Y004192D02*
X014503Y004192D01*
X014503Y004033D02*
X014357Y004033D01*
X014569Y003875D02*
X013846Y003875D01*
X013870Y003716D02*
X014560Y003716D01*
X014560Y003558D02*
X013870Y003558D01*
X013810Y003399D02*
X014605Y003399D01*
X014503Y003241D02*
X014357Y003241D01*
X014360Y003082D02*
X014500Y003082D01*
X014500Y002924D02*
X014360Y002924D01*
X014360Y002765D02*
X014500Y002765D01*
X014500Y002607D02*
X014500Y002250D01*
X014360Y002250D01*
X014360Y002607D01*
X014500Y002607D01*
X014360Y002607D01*
X014360Y002448D02*
X014500Y002448D01*
X014500Y002290D02*
X014360Y002290D01*
X014089Y003241D02*
X013716Y003241D01*
X013781Y004033D02*
X014091Y004033D01*
X013886Y004192D02*
X013644Y004192D01*
X013741Y004350D02*
X013778Y004350D01*
X025480Y003558D02*
X025860Y003558D01*
X025860Y003716D02*
X025692Y003716D01*
X025800Y003875D02*
X025860Y003875D01*
X002189Y018774D02*
X002171Y018774D01*
X002171Y018932D02*
X002189Y018932D01*
X002189Y019091D02*
X002171Y019091D01*
X002171Y019249D02*
X002189Y019249D01*
X002189Y019408D02*
X002171Y019408D01*
X002171Y019566D02*
X002189Y019566D01*
X001788Y019566D02*
X001500Y019566D01*
X001500Y019408D02*
X001679Y019408D01*
X001634Y019249D02*
X001500Y019249D01*
X001500Y019091D02*
X001637Y019091D01*
X001689Y018932D02*
X001500Y018932D01*
X001500Y018774D02*
X001809Y018774D01*
D23*
X002180Y012180D03*
X002180Y010680D03*
X002180Y009180D03*
X002180Y007680D03*
X002180Y006180D03*
X002180Y004680D03*
X002180Y003180D03*
X004680Y002180D03*
X006180Y002180D03*
X007680Y002180D03*
X009180Y002180D03*
X010680Y002180D03*
X012180Y002180D03*
X013180Y002180D03*
X017680Y002180D03*
X019180Y002180D03*
X020680Y002180D03*
X019180Y003680D03*
X017680Y003680D03*
X017680Y005180D03*
X019180Y005180D03*
X019180Y006680D03*
X017680Y006680D03*
X016180Y006680D03*
X014680Y006680D03*
X014680Y008180D03*
X016180Y008180D03*
X017680Y008180D03*
X021930Y008430D03*
X023680Y005180D03*
X025180Y002180D03*
D24*
X022180Y004180D02*
X021680Y003680D01*
X020980Y003680D01*
X020680Y003980D01*
X020680Y005080D01*
X026180Y010580D01*
X026180Y012180D01*
X027680Y012180D02*
X027680Y011180D01*
X025430Y008930D01*
X025430Y007830D01*
X024180Y006580D01*
X023580Y006580D01*
X021180Y004180D01*
X018930Y007430D02*
X019780Y008280D01*
X021080Y008280D01*
X021680Y007680D01*
X022480Y007680D01*
X023680Y008880D01*
X023680Y008930D01*
X023180Y009680D02*
X021930Y008430D01*
X018930Y007430D02*
X007430Y007430D01*
X004680Y010180D01*
X004680Y011730D01*
X002180Y014230D01*
X002180Y015180D01*
X002180Y016180D01*
X005180Y019180D01*
X005680Y018180D02*
X005680Y021680D01*
X005180Y022180D01*
X006180Y022180D02*
X006680Y021680D01*
X013680Y021680D01*
X013680Y020180D01*
X013180Y019180D02*
X016180Y019180D01*
X016180Y020180D01*
X016080Y018180D02*
X010680Y018180D01*
X010380Y017880D01*
X009180Y017880D01*
X009380Y016980D02*
X008780Y016980D01*
X007780Y017980D01*
X007380Y018380D02*
X010380Y018380D01*
X011180Y019180D01*
X010980Y019980D02*
X010180Y019180D01*
X009980Y019980D02*
X008980Y019980D01*
X008180Y019180D01*
X007380Y018380D02*
X005180Y016180D01*
X004680Y017180D02*
X005680Y018180D01*
X004680Y017180D02*
X003680Y017180D01*
X003680Y015430D01*
X004680Y014430D01*
X004680Y012480D01*
X004980Y012180D01*
X014680Y012180D01*
X016180Y013680D01*
X017180Y013680D02*
X018680Y013680D01*
X019580Y012780D01*
X021080Y012780D01*
X021680Y012180D01*
X020180Y012180D02*
X017780Y009780D01*
X011580Y009780D01*
X010680Y008880D01*
X010180Y009380D01*
X006480Y009380D01*
X005180Y010680D01*
X004180Y010680D02*
X003180Y009680D01*
X003180Y009180D01*
X005680Y011680D02*
X006680Y011680D01*
X007180Y011180D01*
X007180Y010680D01*
X005180Y012680D02*
X011280Y012680D01*
X011680Y013080D01*
X011680Y014480D01*
X013380Y014480D01*
X014180Y013680D01*
X014180Y015180D02*
X011680Y015180D01*
X011180Y015680D01*
X011180Y016180D01*
X009880Y015480D02*
X010580Y014780D01*
X026280Y014780D01*
X027680Y016180D01*
X013180Y021180D02*
X011980Y019980D01*
X010980Y019980D01*
X009980Y019980D02*
X011180Y021180D01*
X009380Y016980D02*
X009680Y016680D01*
X009680Y015480D01*
X009880Y015480D01*
D25*
X009180Y017880D03*
X007780Y017980D03*
X013680Y020180D03*
X016080Y018180D03*
X014180Y015180D03*
X010680Y008880D03*
X005680Y011680D03*
X005180Y012680D03*
M02*
