G75*
G70*
%OFA0B0*%
%FSLAX24Y24*%
%IPPOS*%
%LPD*%
%AMOC8*
5,1,8,0,0,1.08239X$1,22.5*
%
%ADD10C,0.0000*%
D10*
X001680Y001180D02*
X025680Y001180D01*
X025724Y001182D01*
X025767Y001188D01*
X025809Y001197D01*
X025851Y001210D01*
X025891Y001227D01*
X025930Y001247D01*
X025967Y001270D01*
X026001Y001297D01*
X026034Y001326D01*
X026063Y001359D01*
X026090Y001393D01*
X026113Y001430D01*
X026133Y001469D01*
X026150Y001509D01*
X026163Y001551D01*
X026172Y001593D01*
X026178Y001636D01*
X026180Y001680D01*
X026180Y007680D01*
X026182Y007724D01*
X026188Y007767D01*
X026197Y007809D01*
X026210Y007851D01*
X026227Y007891D01*
X026247Y007930D01*
X026270Y007967D01*
X026297Y008001D01*
X026326Y008034D01*
X026359Y008063D01*
X026393Y008090D01*
X026430Y008113D01*
X026469Y008133D01*
X026509Y008150D01*
X026551Y008163D01*
X026593Y008172D01*
X026636Y008178D01*
X026680Y008180D01*
X028430Y008180D01*
X028474Y008182D01*
X028517Y008188D01*
X028559Y008197D01*
X028601Y008210D01*
X028641Y008227D01*
X028680Y008247D01*
X028717Y008270D01*
X028751Y008297D01*
X028784Y008326D01*
X028813Y008359D01*
X028840Y008393D01*
X028863Y008430D01*
X028883Y008469D01*
X028900Y008509D01*
X028913Y008551D01*
X028922Y008593D01*
X028928Y008636D01*
X028930Y008680D01*
X028930Y016930D01*
X028928Y016974D01*
X028922Y017017D01*
X028913Y017059D01*
X028900Y017101D01*
X028883Y017141D01*
X028863Y017180D01*
X028840Y017217D01*
X028813Y017251D01*
X028784Y017284D01*
X028751Y017313D01*
X028717Y017340D01*
X028680Y017363D01*
X028641Y017383D01*
X028601Y017400D01*
X028559Y017413D01*
X028517Y017422D01*
X028474Y017428D01*
X028430Y017430D01*
X017430Y017430D01*
X017386Y017432D01*
X017343Y017438D01*
X017301Y017447D01*
X017259Y017460D01*
X017219Y017477D01*
X017180Y017497D01*
X017143Y017520D01*
X017109Y017547D01*
X017076Y017576D01*
X017047Y017609D01*
X017020Y017643D01*
X016997Y017680D01*
X016977Y017719D01*
X016960Y017759D01*
X016947Y017801D01*
X016938Y017843D01*
X016932Y017886D01*
X016930Y017930D01*
X016930Y020680D01*
X016928Y020724D01*
X016922Y020767D01*
X016913Y020809D01*
X016900Y020851D01*
X016883Y020891D01*
X016863Y020930D01*
X016840Y020967D01*
X016813Y021001D01*
X016784Y021034D01*
X016751Y021063D01*
X016717Y021090D01*
X016680Y021113D01*
X016641Y021133D01*
X016601Y021150D01*
X016559Y021163D01*
X016517Y021172D01*
X016474Y021178D01*
X016430Y021180D01*
X015430Y021180D01*
X015386Y021182D01*
X015343Y021188D01*
X015301Y021197D01*
X015259Y021210D01*
X015219Y021227D01*
X015180Y021247D01*
X015143Y021270D01*
X015109Y021297D01*
X015076Y021326D01*
X015047Y021359D01*
X015020Y021393D01*
X014997Y021430D01*
X014977Y021469D01*
X014960Y021509D01*
X014947Y021551D01*
X014938Y021593D01*
X014932Y021636D01*
X014930Y021680D01*
X014930Y022680D01*
X014928Y022724D01*
X014922Y022767D01*
X014913Y022809D01*
X014900Y022851D01*
X014883Y022891D01*
X014863Y022930D01*
X014840Y022967D01*
X014813Y023001D01*
X014784Y023034D01*
X014751Y023063D01*
X014717Y023090D01*
X014680Y023113D01*
X014641Y023133D01*
X014601Y023150D01*
X014559Y023163D01*
X014517Y023172D01*
X014474Y023178D01*
X014430Y023180D01*
X001680Y023180D01*
X001636Y023178D01*
X001593Y023172D01*
X001551Y023163D01*
X001509Y023150D01*
X001469Y023133D01*
X001430Y023113D01*
X001393Y023090D01*
X001359Y023063D01*
X001326Y023034D01*
X001297Y023001D01*
X001270Y022967D01*
X001247Y022930D01*
X001227Y022891D01*
X001210Y022851D01*
X001197Y022809D01*
X001188Y022767D01*
X001182Y022724D01*
X001180Y022680D01*
X001180Y001680D01*
X001182Y001636D01*
X001188Y001593D01*
X001197Y001551D01*
X001210Y001509D01*
X001227Y001469D01*
X001247Y001430D01*
X001270Y001393D01*
X001297Y001359D01*
X001326Y001326D01*
X001359Y001297D01*
X001393Y001270D01*
X001430Y001247D01*
X001469Y001227D01*
X001509Y001210D01*
X001551Y001197D01*
X001593Y001188D01*
X001636Y001182D01*
X001680Y001180D01*
M02*
