G75*
G70*
%OFA0B0*%
%FSLAX24Y24*%
%IPPOS*%
%LPD*%
%AMOC8*
5,1,8,0,0,1.08239X$1,22.5*
%
%ADD10C,0.0000*%
%ADD11C,0.0050*%
%ADD12C,0.0160*%
%ADD13C,0.0030*%
%ADD14C,0.0080*%
%ADD15C,0.0060*%
%ADD16C,0.0020*%
%ADD17C,0.0010*%
%ADD18C,0.0100*%
D10*
X001680Y001180D02*
X009430Y001180D01*
X009474Y001182D01*
X009517Y001188D01*
X009559Y001197D01*
X009601Y001210D01*
X009641Y001227D01*
X009680Y001247D01*
X009717Y001270D01*
X009751Y001297D01*
X009784Y001326D01*
X009813Y001359D01*
X009840Y001393D01*
X009863Y001430D01*
X009883Y001469D01*
X009900Y001509D01*
X009913Y001551D01*
X009922Y001593D01*
X009928Y001636D01*
X009930Y001680D01*
X009930Y002680D01*
X009932Y002724D01*
X009938Y002767D01*
X009947Y002809D01*
X009960Y002851D01*
X009977Y002891D01*
X009997Y002930D01*
X010020Y002967D01*
X010047Y003001D01*
X010076Y003034D01*
X010109Y003063D01*
X010143Y003090D01*
X010180Y003113D01*
X010219Y003133D01*
X010259Y003150D01*
X010301Y003163D01*
X010343Y003172D01*
X010386Y003178D01*
X010430Y003180D01*
X010680Y003180D01*
X010724Y003178D01*
X010767Y003172D01*
X010809Y003163D01*
X010851Y003150D01*
X010891Y003133D01*
X010930Y003113D01*
X010967Y003090D01*
X011001Y003063D01*
X011034Y003034D01*
X011063Y003001D01*
X011090Y002967D01*
X011113Y002930D01*
X011133Y002891D01*
X011150Y002851D01*
X011163Y002809D01*
X011172Y002767D01*
X011178Y002724D01*
X011180Y002680D01*
X011180Y001680D01*
X011182Y001636D01*
X011188Y001593D01*
X011197Y001551D01*
X011210Y001509D01*
X011227Y001469D01*
X011247Y001430D01*
X011270Y001393D01*
X011297Y001359D01*
X011326Y001326D01*
X011359Y001297D01*
X011393Y001270D01*
X011430Y001247D01*
X011469Y001227D01*
X011509Y001210D01*
X011551Y001197D01*
X011593Y001188D01*
X011636Y001182D01*
X011680Y001180D01*
X025680Y001180D01*
X025724Y001182D01*
X025767Y001188D01*
X025809Y001197D01*
X025851Y001210D01*
X025891Y001227D01*
X025930Y001247D01*
X025967Y001270D01*
X026001Y001297D01*
X026034Y001326D01*
X026063Y001359D01*
X026090Y001393D01*
X026113Y001430D01*
X026133Y001469D01*
X026150Y001509D01*
X026163Y001551D01*
X026172Y001593D01*
X026178Y001636D01*
X026180Y001680D01*
X026180Y007680D01*
X026182Y007724D01*
X026188Y007767D01*
X026197Y007809D01*
X026210Y007851D01*
X026227Y007891D01*
X026247Y007930D01*
X026270Y007967D01*
X026297Y008001D01*
X026326Y008034D01*
X026359Y008063D01*
X026393Y008090D01*
X026430Y008113D01*
X026469Y008133D01*
X026509Y008150D01*
X026551Y008163D01*
X026593Y008172D01*
X026636Y008178D01*
X026680Y008180D01*
X028430Y008180D01*
X028474Y008182D01*
X028517Y008188D01*
X028559Y008197D01*
X028601Y008210D01*
X028641Y008227D01*
X028680Y008247D01*
X028717Y008270D01*
X028751Y008297D01*
X028784Y008326D01*
X028813Y008359D01*
X028840Y008393D01*
X028863Y008430D01*
X028883Y008469D01*
X028900Y008509D01*
X028913Y008551D01*
X028922Y008593D01*
X028928Y008636D01*
X028930Y008680D01*
X028930Y016930D01*
X028928Y016974D01*
X028922Y017017D01*
X028913Y017059D01*
X028900Y017101D01*
X028883Y017141D01*
X028863Y017180D01*
X028840Y017217D01*
X028813Y017251D01*
X028784Y017284D01*
X028751Y017313D01*
X028717Y017340D01*
X028680Y017363D01*
X028641Y017383D01*
X028601Y017400D01*
X028559Y017413D01*
X028517Y017422D01*
X028474Y017428D01*
X028430Y017430D01*
X017430Y017430D01*
X017386Y017432D01*
X017343Y017438D01*
X017301Y017447D01*
X017259Y017460D01*
X017219Y017477D01*
X017180Y017497D01*
X017143Y017520D01*
X017109Y017547D01*
X017076Y017576D01*
X017047Y017609D01*
X017020Y017643D01*
X016997Y017680D01*
X016977Y017719D01*
X016960Y017759D01*
X016947Y017801D01*
X016938Y017843D01*
X016932Y017886D01*
X016930Y017930D01*
X016930Y020680D01*
X016928Y020724D01*
X016922Y020767D01*
X016913Y020809D01*
X016900Y020851D01*
X016883Y020891D01*
X016863Y020930D01*
X016840Y020967D01*
X016813Y021001D01*
X016784Y021034D01*
X016751Y021063D01*
X016717Y021090D01*
X016680Y021113D01*
X016641Y021133D01*
X016601Y021150D01*
X016559Y021163D01*
X016517Y021172D01*
X016474Y021178D01*
X016430Y021180D01*
X015430Y021180D01*
X015386Y021182D01*
X015343Y021188D01*
X015301Y021197D01*
X015259Y021210D01*
X015219Y021227D01*
X015180Y021247D01*
X015143Y021270D01*
X015109Y021297D01*
X015076Y021326D01*
X015047Y021359D01*
X015020Y021393D01*
X014997Y021430D01*
X014977Y021469D01*
X014960Y021509D01*
X014947Y021551D01*
X014938Y021593D01*
X014932Y021636D01*
X014930Y021680D01*
X014930Y022680D01*
X014928Y022724D01*
X014922Y022767D01*
X014913Y022809D01*
X014900Y022851D01*
X014883Y022891D01*
X014863Y022930D01*
X014840Y022967D01*
X014813Y023001D01*
X014784Y023034D01*
X014751Y023063D01*
X014717Y023090D01*
X014680Y023113D01*
X014641Y023133D01*
X014601Y023150D01*
X014559Y023163D01*
X014517Y023172D01*
X014474Y023178D01*
X014430Y023180D01*
X001680Y023180D01*
X001636Y023178D01*
X001593Y023172D01*
X001551Y023163D01*
X001509Y023150D01*
X001469Y023133D01*
X001430Y023113D01*
X001393Y023090D01*
X001359Y023063D01*
X001326Y023034D01*
X001297Y023001D01*
X001270Y022967D01*
X001247Y022930D01*
X001227Y022891D01*
X001210Y022851D01*
X001197Y022809D01*
X001188Y022767D01*
X001182Y022724D01*
X001180Y022680D01*
X001180Y001680D01*
X001182Y001636D01*
X001188Y001593D01*
X001197Y001551D01*
X001210Y001509D01*
X001227Y001469D01*
X001247Y001430D01*
X001270Y001393D01*
X001297Y001359D01*
X001326Y001326D01*
X001359Y001297D01*
X001393Y001270D01*
X001430Y001247D01*
X001469Y001227D01*
X001509Y001210D01*
X001551Y001197D01*
X001593Y001188D01*
X001636Y001182D01*
X001680Y001180D01*
D11*
X004305Y002705D02*
X004655Y002705D01*
X004655Y002939D01*
X004655Y003073D02*
X004655Y003307D01*
X004655Y003442D02*
X004305Y003442D01*
X004305Y003617D01*
X004363Y003675D01*
X004597Y003675D01*
X004655Y003617D01*
X004655Y003442D01*
X004480Y003190D02*
X004480Y003073D01*
X004305Y003073D02*
X004655Y003073D01*
X004305Y003073D02*
X004305Y003307D01*
X004421Y003810D02*
X004305Y003927D01*
X004655Y003927D01*
X004655Y004043D02*
X004655Y003810D01*
X005500Y003710D02*
X005500Y003210D01*
X011860Y003210D01*
X011860Y003710D01*
X014180Y004080D02*
X014180Y003180D01*
X014920Y002430D02*
X015050Y002430D01*
X015810Y002430D02*
X015940Y002430D01*
X016680Y003180D02*
X016680Y004080D01*
X015830Y004930D02*
X015030Y004930D01*
X015087Y005205D02*
X015320Y005555D01*
X015455Y005497D02*
X015513Y005555D01*
X015630Y005555D01*
X015689Y005497D01*
X015689Y005439D01*
X015455Y005205D01*
X015689Y005205D01*
X015320Y005205D02*
X015087Y005555D01*
X013155Y006513D02*
X013155Y006630D01*
X013097Y006689D01*
X013155Y006823D02*
X013155Y007057D01*
X013155Y006940D02*
X012805Y006940D01*
X012921Y006823D01*
X012863Y006689D02*
X012805Y006630D01*
X012805Y006513D01*
X012863Y006455D01*
X013097Y006455D01*
X013155Y006513D01*
X011860Y009150D02*
X011860Y009650D01*
X005500Y009650D01*
X005500Y009150D01*
X006430Y007930D02*
X006430Y005930D01*
X006424Y005872D01*
X006421Y005814D01*
X006422Y005756D01*
X006428Y005698D01*
X006436Y005640D01*
X006449Y005583D01*
X006466Y005528D01*
X006486Y005473D01*
X006509Y005420D01*
X006536Y005368D01*
X006567Y005319D01*
X006601Y005271D01*
X006637Y005226D01*
X006677Y005183D01*
X006719Y005143D01*
X006764Y005106D01*
X006811Y005072D01*
X006860Y005041D01*
X006912Y005013D01*
X006965Y004989D01*
X007019Y004969D01*
X007075Y004952D01*
X007131Y004938D01*
X007189Y004929D01*
X007247Y004923D01*
X007305Y004921D01*
X007363Y004923D01*
X007421Y004929D01*
X007479Y004938D01*
X007535Y004952D01*
X007591Y004969D01*
X007645Y004989D01*
X007698Y005013D01*
X007750Y005041D01*
X007799Y005072D01*
X007846Y005106D01*
X007891Y005143D01*
X007933Y005183D01*
X007973Y005226D01*
X008009Y005271D01*
X008043Y005319D01*
X008074Y005368D01*
X008101Y005420D01*
X008124Y005473D01*
X008144Y005528D01*
X008161Y005583D01*
X008174Y005640D01*
X008182Y005698D01*
X008188Y005756D01*
X008189Y005814D01*
X008186Y005872D01*
X008180Y005930D01*
X008180Y007930D01*
X008178Y007988D01*
X008172Y008047D01*
X008162Y008104D01*
X008149Y008161D01*
X008132Y008217D01*
X008111Y008272D01*
X008086Y008325D01*
X008058Y008376D01*
X008026Y008425D01*
X007992Y008472D01*
X007954Y008517D01*
X007913Y008559D01*
X007870Y008598D01*
X007824Y008634D01*
X007776Y008668D01*
X007726Y008697D01*
X007673Y008724D01*
X007619Y008747D01*
X007564Y008766D01*
X007508Y008781D01*
X007451Y008793D01*
X007393Y008801D01*
X007334Y008805D01*
X007276Y008805D01*
X007217Y008801D01*
X007159Y008793D01*
X007102Y008781D01*
X007046Y008766D01*
X006991Y008747D01*
X006937Y008724D01*
X006884Y008697D01*
X006834Y008668D01*
X006786Y008634D01*
X006740Y008598D01*
X006697Y008559D01*
X006656Y008517D01*
X006618Y008472D01*
X006584Y008425D01*
X006552Y008376D01*
X006524Y008325D01*
X006499Y008272D01*
X006478Y008217D01*
X006461Y008161D01*
X006448Y008104D01*
X006438Y008047D01*
X006432Y007988D01*
X006430Y007930D01*
X004155Y006748D02*
X003805Y006748D01*
X003980Y006573D01*
X003980Y006807D01*
X004097Y006439D02*
X004155Y006380D01*
X004155Y006263D01*
X004097Y006205D01*
X003863Y006205D01*
X003805Y006263D01*
X003805Y006380D01*
X003863Y006439D01*
X002405Y006705D02*
X002055Y006705D01*
X002055Y006880D01*
X002113Y006939D01*
X002230Y006939D01*
X002288Y006880D01*
X002288Y006705D01*
X002288Y006822D02*
X002405Y006939D01*
X002405Y007073D02*
X002171Y007307D01*
X002113Y007307D01*
X002055Y007248D01*
X002055Y007132D01*
X002113Y007073D01*
X002405Y007073D02*
X002405Y007307D01*
X002555Y011205D02*
X002555Y011322D01*
X002555Y011263D02*
X002905Y011263D01*
X002905Y011205D02*
X002905Y011322D01*
X002847Y011451D02*
X002613Y011451D01*
X002555Y011509D01*
X002555Y011626D01*
X002613Y011684D01*
X002613Y011819D02*
X002555Y011877D01*
X002555Y011994D01*
X002613Y012052D01*
X002671Y012052D01*
X002905Y011819D01*
X002905Y012052D01*
X002847Y011684D02*
X002905Y011626D01*
X002905Y011509D01*
X002847Y011451D01*
X003055Y015955D02*
X003055Y016130D01*
X003113Y016189D01*
X003230Y016189D01*
X003288Y016130D01*
X003288Y015955D01*
X003288Y016072D02*
X003405Y016189D01*
X003405Y016323D02*
X003405Y016557D01*
X003405Y016440D02*
X003055Y016440D01*
X003171Y016323D01*
X003171Y016692D02*
X003055Y016808D01*
X003405Y016808D01*
X003405Y016692D02*
X003405Y016925D01*
X003405Y015955D02*
X003055Y015955D01*
X002807Y019955D02*
X002573Y019955D01*
X002690Y019955D02*
X002690Y020305D01*
X002573Y020189D01*
X002439Y020305D02*
X002205Y019955D01*
X002439Y019955D02*
X002205Y020305D01*
X002570Y020790D02*
X001790Y020790D01*
X001790Y021570D01*
X002570Y021570D01*
X001629Y020698D02*
X001629Y022666D01*
X014700Y022666D01*
X014700Y020698D01*
X001629Y020698D01*
X010405Y015247D02*
X010405Y015013D01*
X010463Y014955D01*
X010580Y014955D01*
X010639Y015013D01*
X010773Y015013D02*
X010832Y014955D01*
X010948Y014955D01*
X011007Y015013D01*
X011007Y015072D01*
X010948Y015130D01*
X010890Y015130D01*
X010948Y015130D02*
X011007Y015189D01*
X011007Y015247D01*
X010948Y015305D01*
X010832Y015305D01*
X010773Y015247D01*
X010639Y015247D02*
X010580Y015305D01*
X010463Y015305D01*
X010405Y015247D01*
X013905Y018005D02*
X013905Y018122D01*
X013905Y018063D02*
X014255Y018063D01*
X014255Y018005D02*
X014255Y018122D01*
X014197Y018251D02*
X014255Y018309D01*
X014255Y018426D01*
X014197Y018484D01*
X014255Y018619D02*
X014255Y018852D01*
X014255Y018736D02*
X013905Y018736D01*
X014021Y018619D01*
X013963Y018484D02*
X013905Y018426D01*
X013905Y018309D01*
X013963Y018251D01*
X014197Y018251D01*
X017055Y016998D02*
X017230Y016823D01*
X017230Y017057D01*
X017405Y016998D02*
X017055Y016998D01*
X017113Y016689D02*
X017230Y016689D01*
X017288Y016630D01*
X017288Y016455D01*
X017288Y016572D02*
X017405Y016689D01*
X017405Y016455D02*
X017055Y016455D01*
X017055Y016630D01*
X017113Y016689D01*
X015307Y015497D02*
X015248Y015555D01*
X015132Y015555D01*
X015073Y015497D01*
X014939Y015497D02*
X014880Y015555D01*
X014763Y015555D01*
X014705Y015497D01*
X014705Y015263D01*
X014763Y015205D01*
X014880Y015205D01*
X014939Y015263D01*
X015073Y015205D02*
X015307Y015439D01*
X015307Y015497D01*
X015307Y015205D02*
X015073Y015205D01*
X018363Y011425D02*
X018597Y011192D01*
X018655Y011250D01*
X018655Y011367D01*
X018597Y011425D01*
X018363Y011425D01*
X018305Y011367D01*
X018305Y011250D01*
X018363Y011192D01*
X018597Y011192D01*
X018655Y011057D02*
X018655Y010823D01*
X018655Y010940D02*
X018305Y010940D01*
X018421Y010823D01*
X018363Y010689D02*
X018480Y010689D01*
X018538Y010630D01*
X018538Y010455D01*
X018538Y010572D02*
X018655Y010689D01*
X018655Y010455D02*
X018305Y010455D01*
X018305Y010630D01*
X018363Y010689D01*
X018905Y009307D02*
X018905Y009073D01*
X018905Y009190D02*
X018555Y009190D01*
X018671Y009073D01*
X018613Y008939D02*
X018847Y008939D01*
X018905Y008880D01*
X018905Y008763D01*
X018847Y008705D01*
X018613Y008705D01*
X018555Y008763D01*
X018555Y008880D01*
X018613Y008939D01*
X018788Y008822D02*
X018905Y008939D01*
X020055Y010955D02*
X020055Y011130D01*
X020113Y011189D01*
X020230Y011189D01*
X020288Y011130D01*
X020288Y010955D01*
X020288Y011072D02*
X020405Y011189D01*
X020405Y011323D02*
X020405Y011557D01*
X020405Y011440D02*
X020055Y011440D01*
X020171Y011323D01*
X020055Y010955D02*
X020405Y010955D01*
X021555Y010955D02*
X021555Y011130D01*
X021613Y011189D01*
X021730Y011189D01*
X021788Y011130D01*
X021788Y010955D01*
X021788Y011072D02*
X021905Y011189D01*
X021847Y011323D02*
X021905Y011382D01*
X021905Y011498D01*
X021847Y011557D01*
X021788Y011557D01*
X021730Y011498D01*
X021730Y011440D01*
X021730Y011498D02*
X021671Y011557D01*
X021613Y011557D01*
X021555Y011498D01*
X021555Y011382D01*
X021613Y011323D01*
X021555Y010955D02*
X021905Y010955D01*
X023055Y010955D02*
X023055Y011130D01*
X023113Y011189D01*
X023230Y011189D01*
X023288Y011130D01*
X023288Y010955D01*
X023288Y011072D02*
X023405Y011189D01*
X023405Y011323D02*
X023347Y011323D01*
X023113Y011557D01*
X023055Y011557D01*
X023055Y011323D01*
X023055Y010955D02*
X023405Y010955D01*
X024555Y010955D02*
X024555Y011130D01*
X024613Y011189D01*
X024730Y011189D01*
X024788Y011130D01*
X024788Y010955D01*
X024788Y011072D02*
X024905Y011189D01*
X024847Y011323D02*
X024905Y011382D01*
X024905Y011498D01*
X024847Y011557D01*
X024613Y011557D01*
X024555Y011498D01*
X024555Y011382D01*
X024613Y011323D01*
X024671Y011323D01*
X024730Y011382D01*
X024730Y011557D01*
X024905Y010955D02*
X024555Y010955D01*
X025263Y010055D02*
X025380Y010055D01*
X025439Y009997D01*
X025439Y009763D01*
X025380Y009705D01*
X025263Y009705D01*
X025205Y009763D01*
X025205Y009997D01*
X025263Y010055D01*
X025322Y009822D02*
X025439Y009705D01*
X025573Y009705D02*
X025807Y009939D01*
X025807Y009997D01*
X025748Y010055D01*
X025632Y010055D01*
X025573Y009997D01*
X025573Y009705D02*
X025807Y009705D01*
X026055Y010955D02*
X026055Y011130D01*
X026113Y011189D01*
X026230Y011189D01*
X026288Y011130D01*
X026288Y010955D01*
X026288Y011072D02*
X026405Y011189D01*
X026347Y011323D02*
X026405Y011382D01*
X026405Y011498D01*
X026347Y011557D01*
X026288Y011557D01*
X026230Y011498D01*
X026230Y011323D01*
X026347Y011323D01*
X026230Y011323D02*
X026113Y011440D01*
X026055Y011557D01*
X026055Y010955D02*
X026405Y010955D01*
X027555Y010955D02*
X027555Y011130D01*
X027613Y011189D01*
X027730Y011189D01*
X027788Y011130D01*
X027788Y010955D01*
X027788Y011072D02*
X027905Y011189D01*
X027847Y011323D02*
X027788Y011323D01*
X027730Y011382D01*
X027730Y011498D01*
X027788Y011557D01*
X027847Y011557D01*
X027905Y011498D01*
X027905Y011382D01*
X027847Y011323D01*
X027730Y011382D02*
X027671Y011323D01*
X027613Y011323D01*
X027555Y011382D01*
X027555Y011498D01*
X027613Y011557D01*
X027671Y011557D01*
X027730Y011498D01*
X027905Y010955D02*
X027555Y010955D01*
X024905Y007175D02*
X024905Y006942D01*
X024905Y007058D02*
X024555Y007058D01*
X024671Y006942D01*
X024613Y006807D02*
X024555Y006748D01*
X024555Y006573D01*
X024905Y006573D01*
X024788Y006573D02*
X024788Y006748D01*
X024730Y006807D01*
X024613Y006807D01*
X024555Y006439D02*
X024555Y006322D01*
X024555Y006380D02*
X024847Y006380D01*
X024905Y006322D01*
X024905Y006263D01*
X024847Y006205D01*
X022895Y004405D02*
X022895Y003955D01*
X022745Y003955D02*
X023045Y003955D01*
X022745Y004255D02*
X022895Y004405D01*
X022970Y003405D02*
X022820Y003405D01*
X022745Y003330D01*
X022970Y003405D02*
X023045Y003330D01*
X023045Y003255D01*
X022745Y002955D01*
X023045Y002955D01*
X021120Y004805D02*
X021195Y004880D01*
X021195Y004955D01*
X021120Y005030D01*
X020895Y005030D01*
X020895Y004880D01*
X020970Y004805D01*
X021120Y004805D01*
X020895Y005030D02*
X021045Y005180D01*
X021195Y005255D01*
X020307Y005763D02*
X020248Y005705D01*
X020132Y005705D01*
X020073Y005763D01*
X019939Y005705D02*
X019705Y006055D01*
X019939Y006055D02*
X019705Y005705D01*
X020073Y005997D02*
X020132Y006055D01*
X020248Y006055D01*
X020307Y005997D01*
X020307Y005939D01*
X020248Y005880D01*
X020307Y005822D01*
X020307Y005763D01*
X020248Y005880D02*
X020190Y005880D01*
X020955Y006455D02*
X020955Y006805D01*
X021130Y006805D01*
X021189Y006747D01*
X021189Y006630D01*
X021130Y006572D01*
X020955Y006572D01*
X021072Y006572D02*
X021189Y006455D01*
X021323Y006513D02*
X021382Y006455D01*
X021498Y006455D01*
X021557Y006513D01*
X021557Y006630D01*
X021498Y006689D01*
X021440Y006689D01*
X021323Y006630D01*
X021323Y006805D01*
X021557Y006805D01*
X007175Y002705D02*
X006942Y002705D01*
X007058Y002705D02*
X007058Y003055D01*
X006942Y002939D01*
X006807Y003055D02*
X006573Y003055D01*
X006573Y002705D01*
X006439Y002705D02*
X006322Y002822D01*
X006380Y002822D02*
X006205Y002822D01*
X006205Y002705D02*
X006205Y003055D01*
X006380Y003055D01*
X006439Y002997D01*
X006439Y002880D01*
X006380Y002822D01*
X006573Y002880D02*
X006690Y002880D01*
X002570Y020790D02*
X002570Y021570D01*
D12*
X001350Y020430D02*
X001352Y020447D01*
X001357Y020464D01*
X001366Y020478D01*
X001378Y020491D01*
X001393Y020501D01*
X001409Y020507D01*
X001426Y020510D01*
X001443Y020509D01*
X001460Y020504D01*
X001475Y020496D01*
X001488Y020485D01*
X001499Y020471D01*
X001506Y020456D01*
X001510Y020439D01*
X001510Y020421D01*
X001506Y020404D01*
X001499Y020389D01*
X001488Y020375D01*
X001475Y020364D01*
X001460Y020356D01*
X001443Y020351D01*
X001426Y020350D01*
X001409Y020353D01*
X001393Y020359D01*
X001378Y020369D01*
X001366Y020382D01*
X001357Y020396D01*
X001352Y020413D01*
X001350Y020430D01*
D13*
X003445Y020315D02*
X003445Y019945D01*
X003445Y020068D02*
X003630Y020068D01*
X003692Y020130D01*
X003692Y020254D01*
X003630Y020315D01*
X003445Y020315D01*
X003813Y020192D02*
X003937Y020315D01*
X003937Y019945D01*
X004060Y019945D02*
X003813Y019945D01*
X004182Y019945D02*
X004182Y020192D01*
X004305Y020315D01*
X004429Y020192D01*
X004429Y019945D01*
X004429Y020130D02*
X004182Y020130D01*
X002365Y017779D02*
X002242Y017594D01*
X002118Y017779D01*
X001995Y017594D02*
X002365Y017594D01*
X002303Y017473D02*
X002056Y017473D01*
X002303Y017226D01*
X002365Y017287D01*
X002365Y017411D01*
X002303Y017473D01*
X002056Y017473D02*
X001995Y017411D01*
X001995Y017287D01*
X002056Y017226D01*
X002303Y017226D01*
X002303Y017104D02*
X002365Y017043D01*
X002365Y016919D01*
X002303Y016857D01*
X002056Y017104D01*
X002303Y017104D01*
X002056Y017104D02*
X001995Y017043D01*
X001995Y016919D01*
X002056Y016857D01*
X002303Y016857D01*
X002365Y016736D02*
X002365Y016489D01*
X002365Y016613D02*
X001995Y016613D01*
X002118Y016489D01*
X003106Y014757D02*
X003230Y014757D01*
X003292Y014695D01*
X003292Y014510D01*
X003292Y014388D02*
X003353Y014388D01*
X003415Y014327D01*
X003415Y014203D01*
X003353Y014142D01*
X003292Y014142D01*
X003230Y014203D01*
X003230Y014327D01*
X003292Y014388D01*
X003230Y014327D02*
X003168Y014388D01*
X003106Y014388D01*
X003045Y014327D01*
X003045Y014203D01*
X003106Y014142D01*
X003168Y014142D01*
X003230Y014203D01*
X003168Y014020D02*
X003106Y014020D01*
X003045Y013958D01*
X003045Y013835D01*
X003106Y013773D01*
X003106Y013652D02*
X003168Y013652D01*
X003230Y013590D01*
X003292Y013652D01*
X003353Y013652D01*
X003415Y013590D01*
X003415Y013467D01*
X003353Y013405D01*
X003415Y013283D02*
X003168Y013283D01*
X003045Y013160D01*
X003168Y013037D01*
X003415Y013037D01*
X003353Y012915D02*
X003230Y012915D01*
X003230Y012792D01*
X003353Y012915D02*
X003415Y012853D01*
X003415Y012730D01*
X003353Y012668D01*
X003106Y012668D01*
X003045Y012730D01*
X003045Y012853D01*
X003106Y012915D01*
X003230Y013037D02*
X003230Y013283D01*
X003106Y013405D02*
X003045Y013467D01*
X003045Y013590D01*
X003106Y013652D01*
X003230Y013590D02*
X003230Y013528D01*
X003415Y013773D02*
X003168Y014020D01*
X003415Y014020D02*
X003415Y013773D01*
X003415Y014510D02*
X003045Y014510D01*
X003045Y014695D01*
X003106Y014757D01*
X003045Y012547D02*
X003045Y012300D01*
X003415Y012300D01*
X003415Y012547D01*
X003230Y012423D02*
X003230Y012300D01*
X003045Y012179D02*
X003415Y012179D01*
X003415Y011932D02*
X003045Y011932D01*
X003168Y012055D01*
X003045Y012179D01*
X003045Y011810D02*
X003045Y011563D01*
X003045Y011687D02*
X003415Y011687D01*
X003415Y011442D02*
X003168Y011442D01*
X003045Y011318D01*
X003168Y011195D01*
X003415Y011195D01*
X003230Y011195D02*
X003230Y011442D01*
X003180Y007810D02*
X003242Y007748D01*
X003242Y007563D01*
X003365Y007563D02*
X002995Y007563D01*
X002995Y007748D01*
X003056Y007810D01*
X003180Y007810D01*
X003242Y007687D02*
X003365Y007810D01*
X003303Y007442D02*
X003365Y007380D01*
X003365Y007257D01*
X003303Y007195D01*
X003056Y007442D01*
X003303Y007442D01*
X003056Y007442D02*
X002995Y007380D01*
X002995Y007257D01*
X003056Y007195D01*
X003303Y007195D01*
X003303Y007074D02*
X003365Y007012D01*
X003365Y006888D01*
X003303Y006827D01*
X003242Y006827D01*
X003180Y006888D01*
X003180Y007012D01*
X003242Y007074D01*
X003303Y007074D01*
X003180Y007012D02*
X003118Y007074D01*
X003056Y007074D01*
X002995Y007012D01*
X002995Y006888D01*
X003056Y006827D01*
X003118Y006827D01*
X003180Y006888D01*
X003242Y006705D02*
X003180Y006644D01*
X003180Y006458D01*
X003303Y006458D01*
X003365Y006520D01*
X003365Y006644D01*
X003303Y006705D01*
X003242Y006705D01*
X003056Y006582D02*
X003180Y006458D01*
X003056Y006582D02*
X002995Y006705D01*
X004295Y006748D02*
X004356Y006810D01*
X004603Y006563D01*
X004665Y006625D01*
X004665Y006748D01*
X004603Y006810D01*
X004356Y006810D01*
X004295Y006748D02*
X004295Y006625D01*
X004356Y006563D01*
X004603Y006563D01*
X004665Y006442D02*
X004665Y006195D01*
X004665Y006318D02*
X004295Y006318D01*
X004418Y006195D01*
X004356Y006932D02*
X004295Y006993D01*
X004295Y007117D01*
X004356Y007179D01*
X004603Y006932D01*
X004665Y006993D01*
X004665Y007117D01*
X004603Y007179D01*
X004356Y007179D01*
X004418Y007300D02*
X004418Y007485D01*
X004480Y007547D01*
X004665Y007547D01*
X004665Y007300D02*
X004418Y007300D01*
X004356Y006932D02*
X004603Y006932D01*
X004856Y003310D02*
X004795Y003248D01*
X004795Y003125D01*
X004856Y003063D01*
X004918Y003063D01*
X004980Y003125D01*
X004980Y003310D01*
X005103Y003310D02*
X004856Y003310D01*
X005103Y003310D02*
X005165Y003248D01*
X005165Y003125D01*
X005103Y003063D01*
X005103Y002942D02*
X004856Y002942D01*
X004795Y002880D01*
X004795Y002695D01*
X005165Y002695D01*
X005165Y002880D01*
X005103Y002942D01*
X007695Y003065D02*
X007695Y002695D01*
X007695Y002818D02*
X007880Y002818D01*
X007942Y002880D01*
X007942Y003004D01*
X007880Y003065D01*
X007695Y003065D01*
X007818Y002818D02*
X007942Y002695D01*
X008063Y002695D02*
X008063Y003065D01*
X008310Y003065D01*
X008432Y003065D02*
X008555Y002942D01*
X008679Y003065D01*
X008679Y002695D01*
X008800Y002695D02*
X009047Y002695D01*
X009168Y002695D02*
X009415Y002942D01*
X009415Y003004D01*
X009353Y003065D01*
X009230Y003065D01*
X009168Y003004D01*
X008923Y003065D02*
X008923Y002695D01*
X009168Y002695D02*
X009415Y002695D01*
X009537Y002695D02*
X009722Y002695D01*
X009783Y002757D01*
X009783Y002818D01*
X009722Y002880D01*
X009537Y002880D01*
X009722Y002880D02*
X009783Y002942D01*
X009783Y003004D01*
X009722Y003065D01*
X009537Y003065D01*
X009537Y002695D01*
X008923Y003065D02*
X008800Y002942D01*
X008432Y003065D02*
X008432Y002695D01*
X008187Y002880D02*
X008063Y002880D01*
X013295Y006568D02*
X013665Y006568D01*
X013665Y006445D02*
X013665Y006692D01*
X013603Y006813D02*
X013665Y006875D01*
X013665Y006998D01*
X013603Y007060D01*
X013356Y007060D01*
X013603Y006813D01*
X013356Y006813D01*
X013295Y006875D01*
X013295Y006998D01*
X013356Y007060D01*
X013356Y007182D02*
X013295Y007243D01*
X013295Y007367D01*
X013356Y007429D01*
X013603Y007182D01*
X013665Y007243D01*
X013665Y007367D01*
X013603Y007429D01*
X013356Y007429D01*
X013418Y007550D02*
X013418Y007735D01*
X013480Y007797D01*
X013665Y007797D01*
X013665Y007550D02*
X013418Y007550D01*
X013356Y007182D02*
X013603Y007182D01*
X013295Y006568D02*
X013418Y006445D01*
X019045Y008757D02*
X019106Y008695D01*
X019045Y008757D02*
X019045Y008880D01*
X019106Y008942D01*
X019168Y008942D01*
X019415Y008695D01*
X019415Y008942D01*
X019415Y009063D02*
X019045Y009063D01*
X019415Y009310D01*
X019045Y009310D01*
X019045Y009432D02*
X019045Y009679D01*
X019106Y009679D01*
X019353Y009432D01*
X019415Y009432D01*
X019353Y009800D02*
X019106Y009800D01*
X019045Y009862D01*
X019045Y009985D01*
X019106Y010047D01*
X019353Y009800D01*
X019415Y009862D01*
X019415Y009985D01*
X019353Y010047D01*
X019106Y010047D01*
X019106Y010168D02*
X019045Y010230D01*
X019045Y010353D01*
X019106Y010415D01*
X019353Y010168D01*
X019415Y010230D01*
X019415Y010353D01*
X019353Y010415D01*
X019106Y010415D01*
X019106Y010537D02*
X019045Y010598D01*
X019045Y010722D01*
X019106Y010783D01*
X019353Y010537D01*
X019415Y010598D01*
X019415Y010722D01*
X019353Y010783D01*
X019106Y010783D01*
X019106Y010537D02*
X019353Y010537D01*
X019353Y010168D02*
X019106Y010168D01*
X021489Y007742D02*
X021613Y007865D01*
X021613Y007495D01*
X021736Y007495D02*
X021489Y007495D01*
X021857Y007557D02*
X022104Y007804D01*
X022104Y007557D01*
X022043Y007495D01*
X021919Y007495D01*
X021857Y007557D01*
X021857Y007804D01*
X021919Y007865D01*
X022043Y007865D01*
X022104Y007804D01*
X022226Y007804D02*
X022226Y007557D01*
X022473Y007804D01*
X022473Y007557D01*
X022411Y007495D01*
X022287Y007495D01*
X022226Y007557D01*
X022226Y007804D02*
X022287Y007865D01*
X022411Y007865D01*
X022473Y007804D01*
X022594Y007865D02*
X022594Y007495D01*
X022594Y007618D02*
X022779Y007742D01*
X022594Y007618D02*
X022779Y007495D01*
X022726Y006065D02*
X022664Y006004D01*
X022664Y005942D01*
X022726Y005880D01*
X022849Y005880D01*
X022911Y005818D01*
X022911Y005757D01*
X022849Y005695D01*
X022726Y005695D01*
X022664Y005757D01*
X022542Y005695D02*
X022418Y005695D01*
X022480Y005695D02*
X022480Y006065D01*
X022418Y006065D02*
X022542Y006065D01*
X022726Y006065D02*
X022849Y006065D01*
X022911Y006004D01*
X023032Y006065D02*
X023217Y006065D01*
X023279Y006004D01*
X023279Y005880D01*
X023217Y005818D01*
X023032Y005818D01*
X023032Y005695D02*
X023032Y006065D01*
X021929Y006004D02*
X021929Y005880D01*
X021867Y005818D01*
X021682Y005818D01*
X021560Y005818D02*
X021560Y006065D01*
X021682Y006065D02*
X021867Y006065D01*
X021929Y006004D01*
X021805Y005818D02*
X021929Y005695D01*
X021682Y005695D02*
X021682Y006065D01*
X021560Y005818D02*
X021437Y005695D01*
X021313Y005818D01*
X021313Y006065D01*
X021192Y005942D02*
X021192Y005695D01*
X021192Y005880D02*
X020945Y005880D01*
X020945Y005942D02*
X021068Y006065D01*
X021192Y005942D01*
X020945Y005942D02*
X020945Y005695D01*
X025195Y009195D02*
X025442Y009442D01*
X025442Y009504D01*
X025380Y009565D01*
X025257Y009565D01*
X025195Y009504D01*
X025195Y009195D02*
X025442Y009195D01*
X025563Y009195D02*
X025563Y009565D01*
X025810Y009195D01*
X025810Y009565D01*
X025932Y009565D02*
X026179Y009565D01*
X026179Y009504D01*
X025932Y009257D01*
X025932Y009195D01*
X026300Y009257D02*
X026547Y009504D01*
X026547Y009257D01*
X026485Y009195D01*
X026362Y009195D01*
X026300Y009257D01*
X026300Y009504D01*
X026362Y009565D01*
X026485Y009565D01*
X026547Y009504D01*
X026668Y009504D02*
X026730Y009565D01*
X026853Y009565D01*
X026915Y009504D01*
X026668Y009257D01*
X026730Y009195D01*
X026853Y009195D01*
X026915Y009257D01*
X026915Y009504D01*
X027037Y009504D02*
X027098Y009565D01*
X027222Y009565D01*
X027283Y009504D01*
X027037Y009257D01*
X027098Y009195D01*
X027222Y009195D01*
X027283Y009257D01*
X027283Y009504D01*
X027037Y009504D02*
X027037Y009257D01*
X026668Y009257D02*
X026668Y009504D01*
X025665Y008467D02*
X025603Y008529D01*
X025542Y008529D01*
X025480Y008467D01*
X025480Y008406D01*
X025480Y008467D02*
X025418Y008529D01*
X025356Y008529D01*
X025295Y008467D01*
X025295Y008344D01*
X025356Y008282D01*
X025295Y008161D02*
X025542Y008161D01*
X025665Y008037D01*
X025542Y007914D01*
X025295Y007914D01*
X025356Y007792D02*
X025418Y007792D01*
X025480Y007731D01*
X025542Y007792D01*
X025603Y007792D01*
X025665Y007731D01*
X025665Y007607D01*
X025603Y007545D01*
X025480Y007669D02*
X025480Y007731D01*
X025356Y007792D02*
X025295Y007731D01*
X025295Y007607D01*
X025356Y007545D01*
X025356Y007056D02*
X025480Y007056D01*
X025542Y006994D01*
X025542Y006809D01*
X025542Y006687D02*
X025603Y006687D01*
X025665Y006626D01*
X025665Y006502D01*
X025603Y006441D01*
X025665Y006318D02*
X025665Y006195D01*
X025665Y006257D02*
X025295Y006257D01*
X025295Y006318D02*
X025295Y006195D01*
X025356Y006441D02*
X025418Y006441D01*
X025480Y006502D01*
X025480Y006626D01*
X025542Y006687D01*
X025665Y006809D02*
X025295Y006809D01*
X025295Y006994D01*
X025356Y007056D01*
X025356Y006687D02*
X025295Y006626D01*
X025295Y006502D01*
X025356Y006441D01*
X025603Y008282D02*
X025665Y008344D01*
X025665Y008467D01*
X023365Y013489D02*
X023365Y013736D01*
X023365Y013613D02*
X022995Y013613D01*
X023118Y013489D01*
X023056Y013857D02*
X022995Y013919D01*
X022995Y014043D01*
X023056Y014104D01*
X023303Y013857D01*
X023365Y013919D01*
X023365Y014043D01*
X023303Y014104D01*
X023056Y014104D01*
X023056Y014226D02*
X022995Y014287D01*
X022995Y014411D01*
X023056Y014473D01*
X023303Y014226D01*
X023365Y014287D01*
X023365Y014411D01*
X023303Y014473D01*
X023056Y014473D01*
X022995Y014594D02*
X023365Y014594D01*
X023242Y014594D02*
X023118Y014779D01*
X023242Y014594D02*
X023365Y014779D01*
X023303Y014226D02*
X023056Y014226D01*
X023056Y013857D02*
X023303Y013857D01*
X024495Y013858D02*
X024680Y013673D01*
X024680Y013920D01*
X024742Y014042D02*
X024618Y014227D01*
X024495Y014348D02*
X024495Y014595D01*
X024556Y014595D01*
X024803Y014348D01*
X024865Y014348D01*
X024865Y014227D02*
X024742Y014042D01*
X024865Y014042D02*
X024495Y014042D01*
X024495Y013858D02*
X024865Y013858D01*
X025995Y013858D02*
X026180Y013673D01*
X026180Y013920D01*
X026242Y014042D02*
X026118Y014227D01*
X025995Y014348D02*
X025995Y014595D01*
X026056Y014595D01*
X026303Y014348D01*
X026365Y014348D01*
X026365Y014227D02*
X026242Y014042D01*
X026365Y014042D02*
X025995Y014042D01*
X025995Y013858D02*
X026365Y013858D01*
X027495Y013858D02*
X027680Y013673D01*
X027680Y013920D01*
X027742Y014042D02*
X027618Y014227D01*
X027495Y014348D02*
X027495Y014595D01*
X027556Y014595D01*
X027803Y014348D01*
X027865Y014348D01*
X027865Y014227D02*
X027742Y014042D01*
X027865Y014042D02*
X027495Y014042D01*
X027495Y013858D02*
X027865Y013858D01*
X021865Y013797D02*
X021495Y013797D01*
X021618Y013673D01*
X021865Y013673D02*
X021865Y013920D01*
X021803Y014042D02*
X021865Y014103D01*
X021865Y014227D01*
X021803Y014288D01*
X021556Y014288D01*
X021803Y014042D01*
X021556Y014042D01*
X021495Y014103D01*
X021495Y014227D01*
X021556Y014288D01*
X021495Y014410D02*
X021865Y014410D01*
X021742Y014410D02*
X021865Y014595D01*
X021742Y014410D02*
X021618Y014595D01*
X020365Y014595D02*
X020242Y014410D01*
X020118Y014595D01*
X019995Y014410D02*
X020365Y014410D01*
X020303Y014288D02*
X020365Y014227D01*
X020365Y014103D01*
X020303Y014042D01*
X020056Y014288D01*
X020303Y014288D01*
X020303Y014042D02*
X020056Y014042D01*
X019995Y014103D01*
X019995Y014227D01*
X020056Y014288D01*
X020365Y013920D02*
X020365Y013673D01*
X020365Y013797D02*
X019995Y013797D01*
X020118Y013673D01*
X018865Y013673D02*
X018865Y013920D01*
X018865Y013797D02*
X018495Y013797D01*
X018618Y013673D01*
X018556Y014042D02*
X018495Y014103D01*
X018495Y014227D01*
X018556Y014288D01*
X018803Y014042D01*
X018865Y014103D01*
X018865Y014227D01*
X018803Y014288D01*
X018556Y014288D01*
X018495Y014410D02*
X018865Y014410D01*
X018742Y014410D02*
X018865Y014595D01*
X018742Y014410D02*
X018618Y014595D01*
X018556Y014042D02*
X018803Y014042D01*
X016047Y014695D02*
X016047Y014880D01*
X015985Y014942D01*
X015800Y014942D01*
X015800Y014695D01*
X015679Y014757D02*
X015679Y015004D01*
X015432Y014757D01*
X015493Y014695D01*
X015617Y014695D01*
X015679Y014757D01*
X015679Y015004D02*
X015617Y015065D01*
X015493Y015065D01*
X015432Y015004D01*
X015432Y014757D01*
X015310Y014757D02*
X015248Y014695D01*
X015125Y014695D01*
X015063Y014757D01*
X015310Y015004D01*
X015310Y014757D01*
X015310Y015004D02*
X015248Y015065D01*
X015125Y015065D01*
X015063Y015004D01*
X015063Y014757D01*
X014942Y014695D02*
X014695Y014695D01*
X014818Y014695D02*
X014818Y015065D01*
X014695Y014942D01*
X011797Y014630D02*
X011797Y014445D01*
X011797Y014630D02*
X011735Y014692D01*
X011550Y014692D01*
X011550Y014445D01*
X011429Y014507D02*
X011429Y014754D01*
X011182Y014507D01*
X011243Y014445D01*
X011367Y014445D01*
X011429Y014507D01*
X011429Y014754D02*
X011367Y014815D01*
X011243Y014815D01*
X011182Y014754D01*
X011182Y014507D01*
X011060Y014507D02*
X010998Y014445D01*
X010875Y014445D01*
X010813Y014507D01*
X011060Y014754D01*
X011060Y014507D01*
X011060Y014754D02*
X010998Y014815D01*
X010875Y014815D01*
X010813Y014754D01*
X010813Y014507D01*
X010692Y014445D02*
X010445Y014445D01*
X010568Y014445D02*
X010568Y014815D01*
X010445Y014692D01*
X014595Y017945D02*
X014595Y018159D01*
X014648Y018159D01*
X014862Y017945D01*
X014915Y017945D01*
X014755Y018267D02*
X014755Y018481D01*
X014915Y018427D02*
X014595Y018427D01*
X014755Y018267D01*
X014595Y018590D02*
X014915Y018590D01*
X014915Y018803D01*
X014808Y018912D02*
X014915Y019019D01*
X014808Y019125D01*
X014595Y019125D01*
X014648Y019234D02*
X014862Y019234D01*
X014915Y019287D01*
X014915Y019394D01*
X014862Y019448D01*
X014915Y019556D02*
X014701Y019770D01*
X014648Y019770D01*
X014595Y019717D01*
X014595Y019610D01*
X014648Y019556D01*
X014648Y019448D02*
X014595Y019394D01*
X014595Y019287D01*
X014648Y019234D01*
X014595Y018912D02*
X014808Y018912D01*
X014915Y019556D02*
X014915Y019770D01*
X014755Y019879D02*
X014755Y020092D01*
X014755Y020201D02*
X014755Y020414D01*
X014915Y020361D02*
X014595Y020361D01*
X014755Y020201D01*
X014915Y020039D02*
X014595Y020039D01*
X014755Y019879D01*
X015995Y019160D02*
X016365Y019160D01*
X016242Y019160D02*
X016118Y019345D01*
X016242Y019160D02*
X016365Y019345D01*
X016303Y019038D02*
X016056Y019038D01*
X016303Y018792D01*
X016365Y018853D01*
X016365Y018977D01*
X016303Y019038D01*
X016303Y018792D02*
X016056Y018792D01*
X015995Y018853D01*
X015995Y018977D01*
X016056Y019038D01*
X016365Y018670D02*
X016365Y018423D01*
X016365Y018547D02*
X015995Y018547D01*
X016118Y018423D01*
D14*
X015708Y019420D02*
X015708Y016940D01*
X016652Y016940D01*
X016652Y019420D01*
X015708Y019420D01*
X014930Y016680D02*
X014430Y016680D01*
X018208Y015420D02*
X019152Y015420D01*
X019152Y012940D01*
X018208Y012940D01*
X018208Y015420D01*
X019708Y015420D02*
X020652Y015420D01*
X020652Y012940D01*
X019708Y012940D01*
X019708Y015420D01*
X021208Y015420D02*
X022152Y015420D01*
X022152Y012940D01*
X021208Y012940D01*
X021208Y015420D01*
X022708Y015420D02*
X023652Y015420D01*
X023652Y012940D01*
X022708Y012940D01*
X022708Y015420D01*
X024208Y015420D02*
X025152Y015420D01*
X025152Y012940D01*
X024208Y012940D01*
X024208Y015420D01*
X025708Y015420D02*
X025708Y012940D01*
X026652Y012940D01*
X026652Y015420D01*
X025708Y015420D01*
X027208Y015420D02*
X027208Y012940D01*
X028152Y012940D01*
X028152Y015420D01*
X027208Y015420D01*
X024505Y010330D02*
X022855Y010330D01*
X022730Y009780D02*
X022635Y009780D01*
X021725Y009780D02*
X021630Y009780D01*
X021505Y010330D02*
X019855Y010330D01*
X019730Y009780D02*
X019635Y009780D01*
X020640Y009780D02*
X020720Y009780D01*
X021504Y010330D02*
X021543Y010281D01*
X021580Y010230D01*
X021613Y010177D01*
X021643Y010123D01*
X021669Y010066D01*
X021692Y010008D01*
X021712Y009949D01*
X021728Y009888D01*
X021740Y009827D01*
X021749Y009765D01*
X021754Y009703D01*
X021755Y009640D01*
X021752Y009578D01*
X021746Y009515D01*
X021736Y009454D01*
X021722Y009393D01*
X021705Y009333D01*
X021684Y009274D01*
X021660Y009216D01*
X021632Y009160D01*
X021601Y009106D01*
X021566Y009054D01*
X021529Y009004D01*
X021489Y008956D01*
X021445Y008911D01*
X021400Y008868D01*
X021351Y008828D01*
X021301Y008792D01*
X021248Y008758D01*
X021194Y008727D01*
X021137Y008700D01*
X021080Y008677D01*
X020940Y008152D02*
X023420Y008152D01*
X023420Y007208D01*
X020940Y007208D01*
X020940Y008152D01*
X020280Y008677D02*
X020223Y008700D01*
X020166Y008727D01*
X020112Y008758D01*
X020059Y008792D01*
X020009Y008828D01*
X019960Y008868D01*
X019915Y008911D01*
X019871Y008956D01*
X019831Y009004D01*
X019794Y009054D01*
X019759Y009106D01*
X019728Y009160D01*
X019700Y009216D01*
X019676Y009274D01*
X019655Y009333D01*
X019638Y009393D01*
X019624Y009454D01*
X019614Y009515D01*
X019608Y009578D01*
X019605Y009640D01*
X019606Y009703D01*
X019611Y009765D01*
X019620Y009827D01*
X019632Y009888D01*
X019648Y009949D01*
X019668Y010008D01*
X019691Y010066D01*
X019717Y010123D01*
X019747Y010177D01*
X019780Y010230D01*
X019817Y010281D01*
X019856Y010330D01*
X023640Y009780D02*
X023720Y009780D01*
X024504Y010330D02*
X024543Y010281D01*
X024580Y010230D01*
X024613Y010177D01*
X024643Y010123D01*
X024669Y010066D01*
X024692Y010008D01*
X024712Y009949D01*
X024728Y009888D01*
X024740Y009827D01*
X024749Y009765D01*
X024754Y009703D01*
X024755Y009640D01*
X024752Y009578D01*
X024746Y009515D01*
X024736Y009454D01*
X024722Y009393D01*
X024705Y009333D01*
X024684Y009274D01*
X024660Y009216D01*
X024632Y009160D01*
X024601Y009106D01*
X024566Y009054D01*
X024529Y009004D01*
X024489Y008956D01*
X024445Y008911D01*
X024400Y008868D01*
X024351Y008828D01*
X024301Y008792D01*
X024248Y008758D01*
X024194Y008727D01*
X024137Y008700D01*
X024080Y008677D01*
X023280Y008677D02*
X023223Y008700D01*
X023166Y008727D01*
X023112Y008758D01*
X023059Y008792D01*
X023009Y008828D01*
X022960Y008868D01*
X022915Y008911D01*
X022871Y008956D01*
X022831Y009004D01*
X022794Y009054D01*
X022759Y009106D01*
X022728Y009160D01*
X022700Y009216D01*
X022676Y009274D01*
X022655Y009333D01*
X022638Y009393D01*
X022624Y009454D01*
X022614Y009515D01*
X022608Y009578D01*
X022605Y009640D01*
X022606Y009703D01*
X022611Y009765D01*
X022620Y009827D01*
X022632Y009888D01*
X022648Y009949D01*
X022668Y010008D01*
X022691Y010066D01*
X022717Y010123D01*
X022747Y010177D01*
X022780Y010230D01*
X022817Y010281D01*
X022856Y010330D01*
X024630Y009780D02*
X024725Y009780D01*
X024930Y005680D02*
X025430Y005680D01*
X025680Y005430D01*
X025680Y004930D01*
X025430Y004680D01*
X025680Y004430D01*
X025680Y003930D01*
X025430Y003680D01*
X024930Y003680D01*
X024680Y003930D01*
X024680Y004430D01*
X024930Y004680D01*
X024680Y004930D01*
X024680Y005430D01*
X024930Y005680D01*
X013430Y005180D02*
X012930Y005180D01*
X004430Y008680D02*
X003930Y008680D01*
X003652Y008420D02*
X003652Y005940D01*
X002708Y005940D01*
X002708Y008420D01*
X003652Y008420D01*
X009180Y014680D02*
X009180Y015180D01*
X002652Y015940D02*
X001708Y015940D01*
X001708Y018420D01*
X002652Y018420D01*
X002652Y015940D01*
D15*
X003680Y016530D02*
X003680Y018830D01*
X013680Y018830D01*
X013680Y018080D01*
X013641Y018078D01*
X013602Y018072D01*
X013564Y018063D01*
X013527Y018050D01*
X013491Y018033D01*
X013458Y018013D01*
X013426Y017989D01*
X013397Y017963D01*
X013371Y017934D01*
X013347Y017902D01*
X013327Y017869D01*
X013310Y017833D01*
X013297Y017796D01*
X013288Y017758D01*
X013282Y017719D01*
X013280Y017680D01*
X013282Y017641D01*
X013288Y017602D01*
X013297Y017564D01*
X013310Y017527D01*
X013327Y017491D01*
X013347Y017458D01*
X013371Y017426D01*
X013397Y017397D01*
X013426Y017371D01*
X013458Y017347D01*
X013491Y017327D01*
X013527Y017310D01*
X013564Y017297D01*
X013602Y017288D01*
X013641Y017282D01*
X013680Y017280D01*
X013680Y016530D01*
X003680Y016530D01*
X003680Y013330D02*
X003680Y011030D01*
X017680Y011030D01*
X017680Y011780D01*
X017641Y011782D01*
X017602Y011788D01*
X017564Y011797D01*
X017527Y011810D01*
X017491Y011827D01*
X017458Y011847D01*
X017426Y011871D01*
X017397Y011897D01*
X017371Y011926D01*
X017347Y011958D01*
X017327Y011991D01*
X017310Y012027D01*
X017297Y012064D01*
X017288Y012102D01*
X017282Y012141D01*
X017280Y012180D01*
X017282Y012219D01*
X017288Y012258D01*
X017297Y012296D01*
X017310Y012333D01*
X017327Y012369D01*
X017347Y012402D01*
X017371Y012434D01*
X017397Y012463D01*
X017426Y012489D01*
X017458Y012513D01*
X017491Y012533D01*
X017527Y012550D01*
X017564Y012563D01*
X017602Y012572D01*
X017641Y012578D01*
X017680Y012580D01*
X017680Y013330D01*
X003680Y013330D01*
X018180Y005430D02*
X018180Y001930D01*
X018680Y001930D01*
X018680Y001830D01*
X019180Y001830D01*
X019180Y001930D01*
X020930Y001930D01*
X020930Y001830D01*
X021430Y001830D01*
X021430Y001930D01*
X023180Y001930D01*
X023180Y001830D01*
X023680Y001830D01*
X023680Y001930D01*
X024180Y001930D01*
X024180Y005430D01*
X022680Y005430D01*
X022680Y005380D01*
X022180Y005380D01*
X022180Y005430D01*
X021980Y005430D01*
X021980Y005030D01*
X021980Y004930D01*
X023680Y004930D01*
X023680Y002430D01*
X018680Y002430D01*
X018680Y004930D01*
X020380Y004930D01*
X020380Y005030D01*
X020380Y005430D01*
X021980Y005430D01*
X021980Y004930D02*
X021980Y004630D01*
X020380Y004630D01*
X020380Y004930D01*
X020380Y005430D02*
X018180Y005430D01*
D16*
X018580Y005030D02*
X018580Y002330D01*
X023780Y002330D01*
X023780Y005030D01*
X021980Y005030D01*
X020380Y005030D02*
X018580Y005030D01*
D17*
X002336Y003175D02*
X002426Y003175D01*
X002425Y003175D02*
X002427Y003121D01*
X002433Y003068D01*
X002443Y003015D01*
X002457Y002963D01*
X002474Y002912D01*
X002495Y002863D01*
X002519Y002815D01*
X002547Y002769D01*
X002578Y002725D01*
X002612Y002683D01*
X002648Y002644D01*
X002688Y002607D01*
X002730Y002574D01*
X002774Y002543D01*
X002820Y002516D01*
X002778Y002437D01*
X002729Y002465D01*
X002683Y002497D01*
X002638Y002532D01*
X002596Y002569D01*
X002556Y002610D01*
X002520Y002653D01*
X002486Y002698D01*
X002455Y002745D01*
X002428Y002795D01*
X002404Y002846D01*
X002383Y002898D01*
X002366Y002952D01*
X002353Y003007D01*
X002343Y003062D01*
X002337Y003119D01*
X002335Y003175D01*
X002344Y003175D01*
X002346Y003119D01*
X002352Y003064D01*
X002362Y003009D01*
X002375Y002954D01*
X002392Y002901D01*
X002412Y002849D01*
X002436Y002799D01*
X002463Y002750D01*
X002493Y002703D01*
X002527Y002658D01*
X002563Y002616D01*
X002602Y002576D01*
X002644Y002539D01*
X002688Y002504D01*
X002734Y002473D01*
X002782Y002445D01*
X002786Y002453D01*
X002739Y002481D01*
X002693Y002512D01*
X002650Y002546D01*
X002608Y002582D01*
X002570Y002622D01*
X002534Y002664D01*
X002501Y002708D01*
X002471Y002754D01*
X002444Y002803D01*
X002421Y002853D01*
X002400Y002904D01*
X002384Y002957D01*
X002371Y003010D01*
X002361Y003065D01*
X002355Y003120D01*
X002353Y003175D01*
X002362Y003175D01*
X002364Y003120D01*
X002370Y003066D01*
X002379Y003012D01*
X002392Y002959D01*
X002409Y002907D01*
X002429Y002856D01*
X002452Y002807D01*
X002479Y002759D01*
X002508Y002713D01*
X002541Y002669D01*
X002576Y002628D01*
X002615Y002589D01*
X002655Y002552D01*
X002698Y002519D01*
X002744Y002488D01*
X002791Y002461D01*
X002795Y002469D01*
X002748Y002496D01*
X002704Y002526D01*
X002661Y002559D01*
X002621Y002595D01*
X002583Y002634D01*
X002548Y002675D01*
X002516Y002718D01*
X002486Y002764D01*
X002460Y002811D01*
X002437Y002860D01*
X002417Y002910D01*
X002401Y002962D01*
X002388Y003014D01*
X002379Y003067D01*
X002373Y003121D01*
X002371Y003175D01*
X002380Y003175D01*
X002382Y003122D01*
X002388Y003069D01*
X002397Y003016D01*
X002410Y002964D01*
X002426Y002913D01*
X002445Y002863D01*
X002468Y002815D01*
X002494Y002768D01*
X002523Y002724D01*
X002555Y002681D01*
X002590Y002640D01*
X002627Y002602D01*
X002667Y002566D01*
X002709Y002533D01*
X002753Y002503D01*
X002799Y002476D01*
X002803Y002484D01*
X002758Y002511D01*
X002714Y002541D01*
X002673Y002573D01*
X002633Y002608D01*
X002596Y002646D01*
X002562Y002686D01*
X002530Y002729D01*
X002502Y002773D01*
X002476Y002819D01*
X002454Y002867D01*
X002434Y002916D01*
X002418Y002966D01*
X002406Y003018D01*
X002397Y003070D01*
X002391Y003122D01*
X002389Y003175D01*
X002398Y003175D01*
X002400Y003119D01*
X002407Y003064D01*
X002417Y003009D01*
X002431Y002955D01*
X002449Y002903D01*
X002470Y002851D01*
X002496Y002802D01*
X002524Y002754D01*
X002556Y002708D01*
X002591Y002665D01*
X002629Y002625D01*
X002670Y002587D01*
X002714Y002552D01*
X002760Y002521D01*
X002808Y002492D01*
X002812Y002500D01*
X002764Y002528D01*
X002719Y002559D01*
X002676Y002594D01*
X002636Y002631D01*
X002598Y002671D01*
X002563Y002714D01*
X002532Y002759D01*
X002503Y002806D01*
X002479Y002855D01*
X002457Y002906D01*
X002440Y002958D01*
X002426Y003011D01*
X002416Y003065D01*
X002409Y003120D01*
X002407Y003175D01*
X002416Y003175D01*
X002418Y003121D01*
X002424Y003067D01*
X002434Y003013D01*
X002448Y002961D01*
X002466Y002909D01*
X002487Y002859D01*
X002511Y002810D01*
X002539Y002764D01*
X002571Y002719D01*
X002605Y002677D01*
X002642Y002638D01*
X002682Y002601D01*
X002724Y002567D01*
X002769Y002536D01*
X002816Y002508D01*
X003603Y002449D02*
X003558Y002527D01*
X003559Y002527D02*
X003603Y002555D01*
X003645Y002586D01*
X003685Y002619D01*
X003723Y002655D01*
X003758Y002694D01*
X003790Y002735D01*
X003820Y002779D01*
X003846Y002824D01*
X003869Y002871D01*
X003889Y002919D01*
X003905Y002969D01*
X003918Y003019D01*
X003927Y003071D01*
X003933Y003123D01*
X003935Y003175D01*
X004024Y003176D01*
X004025Y003175D01*
X004023Y003120D01*
X004017Y003066D01*
X004008Y003011D01*
X003995Y002958D01*
X003979Y002906D01*
X003960Y002854D01*
X003937Y002804D01*
X003911Y002756D01*
X003882Y002709D01*
X003850Y002665D01*
X003815Y002622D01*
X003777Y002582D01*
X003737Y002545D01*
X003695Y002510D01*
X003650Y002478D01*
X003604Y002449D01*
X003599Y002457D01*
X003645Y002485D01*
X003689Y002517D01*
X003731Y002552D01*
X003771Y002589D01*
X003808Y002628D01*
X003843Y002670D01*
X003874Y002714D01*
X003903Y002760D01*
X003929Y002808D01*
X003951Y002858D01*
X003971Y002908D01*
X003987Y002960D01*
X003999Y003013D01*
X004008Y003067D01*
X004014Y003121D01*
X004016Y003175D01*
X004007Y003175D01*
X004005Y003121D01*
X003999Y003068D01*
X003990Y003015D01*
X003978Y002963D01*
X003962Y002911D01*
X003943Y002861D01*
X003921Y002812D01*
X003895Y002765D01*
X003867Y002719D01*
X003835Y002676D01*
X003801Y002634D01*
X003765Y002595D01*
X003725Y002558D01*
X003684Y002524D01*
X003640Y002493D01*
X003595Y002464D01*
X003590Y002472D01*
X003638Y002502D01*
X003684Y002536D01*
X003727Y002572D01*
X003768Y002612D01*
X003806Y002654D01*
X003841Y002698D01*
X003873Y002745D01*
X003901Y002794D01*
X003926Y002845D01*
X003948Y002898D01*
X003965Y002951D01*
X003979Y003006D01*
X003989Y003062D01*
X003996Y003118D01*
X003998Y003175D01*
X003989Y003175D01*
X003987Y003119D01*
X003981Y003063D01*
X003971Y003008D01*
X003957Y002954D01*
X003939Y002901D01*
X003918Y002849D01*
X003893Y002798D01*
X003865Y002750D01*
X003834Y002704D01*
X003799Y002659D01*
X003762Y002618D01*
X003721Y002579D01*
X003679Y002543D01*
X003633Y002510D01*
X003586Y002480D01*
X003581Y002488D01*
X003628Y002517D01*
X003673Y002550D01*
X003715Y002586D01*
X003755Y002624D01*
X003792Y002665D01*
X003827Y002709D01*
X003858Y002755D01*
X003885Y002803D01*
X003910Y002852D01*
X003931Y002904D01*
X003948Y002956D01*
X003962Y003010D01*
X003972Y003065D01*
X003978Y003120D01*
X003980Y003175D01*
X003971Y003175D01*
X003969Y003120D01*
X003963Y003066D01*
X003953Y003012D01*
X003939Y002959D01*
X003922Y002907D01*
X003902Y002856D01*
X003877Y002807D01*
X003850Y002760D01*
X003819Y002714D01*
X003786Y002671D01*
X003749Y002630D01*
X003709Y002592D01*
X003667Y002557D01*
X003623Y002525D01*
X003577Y002496D01*
X003572Y002504D01*
X003618Y002532D01*
X003662Y002564D01*
X003703Y002599D01*
X003742Y002637D01*
X003779Y002677D01*
X003812Y002719D01*
X003842Y002764D01*
X003870Y002811D01*
X003893Y002860D01*
X003914Y002910D01*
X003931Y002961D01*
X003944Y003014D01*
X003954Y003067D01*
X003960Y003121D01*
X003962Y003175D01*
X003953Y003175D01*
X003951Y003122D01*
X003945Y003068D01*
X003935Y003016D01*
X003922Y002964D01*
X003905Y002913D01*
X003885Y002863D01*
X003862Y002815D01*
X003835Y002769D01*
X003805Y002725D01*
X003772Y002683D01*
X003736Y002643D01*
X003697Y002606D01*
X003656Y002571D01*
X003613Y002540D01*
X003568Y002511D01*
X003563Y002519D01*
X003608Y002547D01*
X003651Y002578D01*
X003691Y002612D01*
X003729Y002649D01*
X003765Y002688D01*
X003797Y002730D01*
X003827Y002774D01*
X003854Y002820D01*
X003877Y002867D01*
X003897Y002916D01*
X003914Y002966D01*
X003927Y003018D01*
X003936Y003070D01*
X003942Y003122D01*
X003944Y003175D01*
X004024Y003184D02*
X003934Y003184D01*
X003935Y003185D02*
X003933Y003239D01*
X003927Y003292D01*
X003917Y003345D01*
X003903Y003397D01*
X003886Y003448D01*
X003865Y003498D01*
X003841Y003546D01*
X003813Y003592D01*
X003782Y003636D01*
X003748Y003677D01*
X003711Y003717D01*
X003672Y003753D01*
X003729Y003821D01*
X003730Y003822D01*
X003771Y003784D01*
X003809Y003744D01*
X003845Y003701D01*
X003878Y003656D01*
X003908Y003609D01*
X003934Y003561D01*
X003958Y003510D01*
X003978Y003458D01*
X003994Y003405D01*
X004008Y003351D01*
X004017Y003296D01*
X004023Y003241D01*
X004025Y003185D01*
X004016Y003185D01*
X004014Y003240D01*
X004008Y003295D01*
X003999Y003349D01*
X003986Y003403D01*
X003969Y003455D01*
X003950Y003507D01*
X003926Y003557D01*
X003900Y003605D01*
X003870Y003651D01*
X003838Y003696D01*
X003803Y003738D01*
X003764Y003778D01*
X003724Y003815D01*
X003718Y003808D01*
X003758Y003771D01*
X003796Y003732D01*
X003831Y003690D01*
X003863Y003646D01*
X003892Y003600D01*
X003918Y003552D01*
X003941Y003503D01*
X003961Y003452D01*
X003977Y003400D01*
X003990Y003347D01*
X003999Y003294D01*
X004005Y003239D01*
X004007Y003185D01*
X003998Y003185D01*
X003996Y003239D01*
X003990Y003292D01*
X003981Y003345D01*
X003968Y003398D01*
X003952Y003449D01*
X003933Y003500D01*
X003910Y003548D01*
X003885Y003596D01*
X003856Y003641D01*
X003824Y003685D01*
X003789Y003726D01*
X003752Y003765D01*
X003712Y003801D01*
X003706Y003794D01*
X003746Y003758D01*
X003783Y003720D01*
X003817Y003679D01*
X003848Y003636D01*
X003877Y003591D01*
X003902Y003544D01*
X003925Y003496D01*
X003944Y003446D01*
X003960Y003395D01*
X003972Y003344D01*
X003981Y003291D01*
X003987Y003238D01*
X003989Y003185D01*
X003980Y003185D01*
X003978Y003238D01*
X003972Y003290D01*
X003963Y003342D01*
X003951Y003393D01*
X003935Y003443D01*
X003916Y003493D01*
X003894Y003540D01*
X003869Y003587D01*
X003841Y003631D01*
X003810Y003673D01*
X003776Y003714D01*
X003739Y003752D01*
X003701Y003787D01*
X003695Y003781D01*
X003733Y003745D01*
X003769Y003708D01*
X003803Y003668D01*
X003833Y003626D01*
X003861Y003582D01*
X003886Y003536D01*
X003908Y003489D01*
X003927Y003440D01*
X003942Y003391D01*
X003955Y003340D01*
X003963Y003289D01*
X003969Y003237D01*
X003971Y003185D01*
X003962Y003185D01*
X003960Y003241D01*
X003953Y003296D01*
X003943Y003351D01*
X003929Y003405D01*
X003911Y003458D01*
X003889Y003509D01*
X003864Y003559D01*
X003835Y003607D01*
X003803Y003652D01*
X003768Y003695D01*
X003730Y003736D01*
X003689Y003774D01*
X003683Y003767D01*
X003724Y003730D01*
X003761Y003689D01*
X003796Y003647D01*
X003828Y003602D01*
X003856Y003554D01*
X003881Y003505D01*
X003903Y003454D01*
X003920Y003402D01*
X003934Y003349D01*
X003944Y003295D01*
X003951Y003240D01*
X003953Y003185D01*
X003944Y003185D01*
X003942Y003239D01*
X003936Y003293D01*
X003926Y003347D01*
X003912Y003400D01*
X003894Y003451D01*
X003873Y003501D01*
X003848Y003550D01*
X003820Y003597D01*
X003789Y003641D01*
X003755Y003683D01*
X003717Y003723D01*
X003677Y003760D01*
X002636Y003825D02*
X002693Y003756D01*
X002693Y003757D02*
X002653Y003720D01*
X002615Y003681D01*
X002581Y003639D01*
X002549Y003595D01*
X002521Y003549D01*
X002496Y003500D01*
X002475Y003450D01*
X002457Y003399D01*
X002444Y003346D01*
X002434Y003293D01*
X002427Y003239D01*
X002425Y003185D01*
X002336Y003184D01*
X002335Y003185D01*
X002337Y003241D01*
X002343Y003297D01*
X002353Y003352D01*
X002366Y003407D01*
X002383Y003460D01*
X002403Y003513D01*
X002427Y003564D01*
X002454Y003613D01*
X002485Y003660D01*
X002518Y003705D01*
X002554Y003748D01*
X002593Y003788D01*
X002635Y003826D01*
X002641Y003819D01*
X002600Y003782D01*
X002561Y003742D01*
X002525Y003700D01*
X002492Y003655D01*
X002462Y003608D01*
X002435Y003560D01*
X002412Y003509D01*
X002391Y003457D01*
X002375Y003404D01*
X002362Y003350D01*
X002352Y003296D01*
X002346Y003241D01*
X002344Y003185D01*
X002353Y003185D01*
X002355Y003240D01*
X002361Y003295D01*
X002370Y003349D01*
X002383Y003402D01*
X002400Y003454D01*
X002420Y003506D01*
X002443Y003555D01*
X002470Y003604D01*
X002499Y003650D01*
X002532Y003694D01*
X002568Y003736D01*
X002606Y003775D01*
X002647Y003812D01*
X002652Y003805D01*
X002612Y003769D01*
X002574Y003730D01*
X002539Y003688D01*
X002507Y003645D01*
X002477Y003599D01*
X002451Y003551D01*
X002428Y003502D01*
X002408Y003452D01*
X002392Y003400D01*
X002379Y003347D01*
X002370Y003293D01*
X002364Y003239D01*
X002362Y003185D01*
X002371Y003185D01*
X002373Y003239D01*
X002379Y003292D01*
X002388Y003345D01*
X002401Y003397D01*
X002417Y003449D01*
X002436Y003499D01*
X002459Y003547D01*
X002485Y003594D01*
X002514Y003640D01*
X002546Y003683D01*
X002581Y003724D01*
X002618Y003762D01*
X002658Y003798D01*
X002664Y003791D01*
X002625Y003756D01*
X002588Y003718D01*
X002553Y003677D01*
X002522Y003634D01*
X002493Y003590D01*
X002467Y003543D01*
X002445Y003495D01*
X002425Y003446D01*
X002409Y003395D01*
X002397Y003343D01*
X002388Y003291D01*
X002382Y003238D01*
X002380Y003185D01*
X002389Y003185D01*
X002391Y003237D01*
X002397Y003290D01*
X002406Y003341D01*
X002418Y003392D01*
X002434Y003443D01*
X002453Y003492D01*
X002475Y003539D01*
X002501Y003585D01*
X002529Y003629D01*
X002560Y003671D01*
X002594Y003712D01*
X002631Y003749D01*
X002670Y003784D01*
X002676Y003778D01*
X002637Y003743D01*
X002601Y003705D01*
X002567Y003666D01*
X002536Y003624D01*
X002508Y003580D01*
X002483Y003535D01*
X002461Y003488D01*
X002442Y003440D01*
X002427Y003390D01*
X002414Y003340D01*
X002406Y003288D01*
X002400Y003237D01*
X002398Y003185D01*
X002407Y003185D01*
X002409Y003236D01*
X002414Y003287D01*
X002423Y003338D01*
X002435Y003388D01*
X002451Y003437D01*
X002469Y003484D01*
X002491Y003531D01*
X002516Y003576D01*
X002544Y003619D01*
X002574Y003660D01*
X002607Y003699D01*
X002643Y003736D01*
X002681Y003771D01*
X002687Y003764D01*
X002646Y003727D01*
X002608Y003687D01*
X002574Y003645D01*
X002542Y003600D01*
X002513Y003553D01*
X002488Y003504D01*
X002467Y003453D01*
X002449Y003402D01*
X002435Y003348D01*
X002425Y003294D01*
X002418Y003240D01*
X002416Y003185D01*
D18*
X002670Y003800D02*
X002870Y003800D01*
X003510Y003800D02*
X003690Y003800D01*
M02*
