%
M48
M72
T01C0.0200
T02C0.0236
T03C0.0276
T04C0.0320
T05C0.0354
T06C0.0360
T07C0.0394
T08C0.0400
T09C0.0610
%
T01
X10680Y8880
X5680Y11680
X5180Y12680
X7780Y17980
X9180Y17880
X13680Y20180
X16080Y18180
X14180Y15180
T02
X14680Y8180
X16180Y8180
X17680Y8180
X17680Y6680
X16180Y6680
X14680Y6680
X17680Y5180
X19180Y5180
X19180Y3680
X17680Y3680
X17680Y2180
X19180Y2180
X20680Y2180
X25180Y2180
X19180Y6680
X13180Y2180
X12180Y2180
X9180Y2180
X7680Y2180
X6180Y2180
X4680Y2180
X2180Y3180
X2180Y4680
X2180Y6180
X2180Y7680
X2180Y9180
X2180Y10680
X2180Y12180
T03
X4180Y9180
X4180Y8180
X8680Y14930
X9680Y14930
X14680Y16180
X14680Y17180
X13180Y5680
X13180Y4680
T04
X3180Y2680
X3180Y3680
X4180Y10680
X5180Y10680
X6180Y10680
X7180Y10680
X8180Y10680
X9180Y10680
X10180Y10680
X11180Y10680
X12180Y10680
X13180Y10680
X14180Y10680
X15180Y10680
X16180Y10680
X17180Y10680
X20180Y9680
X20680Y8930
X21180Y9680
X23180Y9680
X23680Y8930
X24180Y9680
X17180Y13680
X16180Y13680
X15180Y13680
X14180Y13680
X13180Y13680
X12180Y13680
X11180Y13680
X10180Y13680
X9180Y13680
X8180Y13680
X7180Y13680
X6180Y13680
X5180Y13680
X4180Y13680
X4180Y16180
X5180Y16180
X6180Y16180
X7180Y16180
X8180Y16180
X9180Y16180
X10180Y16180
X11180Y16180
X12180Y16180
X13180Y16180
X13180Y19180
X12180Y19180
X11180Y19180
X10180Y19180
X9180Y19180
X8180Y19180
X7180Y19180
X6180Y19180
X5180Y19180
X4180Y19180
T05
X2180Y19180
X2180Y15180
X3180Y9180
X3180Y5180
X16180Y16180
X18680Y16180
X20180Y16180
X21680Y16180
X23180Y16180
X24680Y16180
X26180Y16180
X27680Y16180
X27680Y12180
X26180Y12180
X24680Y12180
X23180Y12180
X21680Y12180
X20180Y12180
X18680Y12180
X20180Y7680
X24180Y7680
X16180Y20180
T06
X20180Y4180
X21180Y4180
X21180Y3180
X20180Y3180
X22180Y3180
X22180Y4180
T07
X14180Y21180
X13180Y21180
X12180Y21180
X11180Y21180
X10180Y21180
X9180Y21180
X8180Y21180
X7180Y21180
X6180Y21180
X5180Y21180
X4180Y21180
X3180Y21180
X2180Y21180
X2180Y22180
X3180Y22180
X4180Y22180
X5180Y22180
X6180Y22180
X7180Y22180
X8180Y22180
X9180Y22180
X10180Y22180
X11180Y22180
X12180Y22180
X13180Y22180
X14180Y22180
T08
X15180Y9180
X16180Y9180
X17180Y9180
X13180Y3680
X25180Y4180
X25180Y5180
T09
X16430Y4680
X15430Y3680
X14430Y2680
X16430Y2680
X14430Y4680
M30
